<svg width="576" height="546" viewBox="0 0 576 546" fill="none" xmlns="http://www.w3.org/2000/svg">
<path d="M377.237 200.431H484.273V467.609L430.748 496.902L377.237 467.609V200.431Z" fill="#8C234F"/>
<path d="M430.747 493.067L380.736 465.698V203.748H480.766V465.698L430.747 493.067Z" fill="#EAEAEA"/>
<path opacity="0.16" d="M380.736 210.116V404.11H480.766V210.116H380.736Z" fill="url(#paint0_linear_130_2)"/>
<g opacity="0.4">
<path opacity="0.0476" d="M421.626 248.834L377.23 224.537V200.397H484.266V224.537L439.863 248.834C434.226 251.919 427.27 251.919 421.626 248.834Z" fill="#F3F3F3"/>
<path opacity="0.0952" d="M421.626 248.227L377.23 223.93V199.79H484.266V223.93L439.863 248.227C434.226 251.318 427.27 251.318 421.626 248.227Z" fill="#E7E7E7"/>
<path opacity="0.1429" d="M421.626 247.619L377.23 223.322V199.182H484.266V223.322L439.863 247.619C434.226 250.711 427.27 250.711 421.626 247.619Z" fill="#DBDBDB"/>
<path opacity="0.1905" d="M421.626 247.012L377.23 222.715V198.575H484.266V222.715L439.863 247.012C434.226 250.103 427.27 250.103 421.626 247.012Z" fill="#CECECE"/>
<path opacity="0.2381" d="M421.626 246.404L377.23 222.107V197.967H484.266V222.107L439.863 246.404C434.226 249.496 427.27 249.496 421.626 246.404Z" fill="#C2C2C2"/>
<path opacity="0.2857" d="M421.626 245.804L377.23 221.507V197.367H484.266V221.507L439.863 245.804C434.226 248.889 427.27 248.889 421.626 245.804Z" fill="#B6B6B6"/>
<path opacity="0.3333" d="M421.626 245.196L377.23 220.899V196.759H484.266V220.899L439.863 245.196C434.226 248.281 427.27 248.281 421.626 245.196Z" fill="#AAAAAA"/>
<path opacity="0.381" d="M421.626 244.589L377.23 220.292V196.152H484.266V220.292L439.863 244.589C434.226 247.681 427.27 247.674 421.626 244.589Z" fill="#9E9E9E"/>
<path opacity="0.4286" d="M421.626 243.981L377.23 219.684V195.544H484.266V219.684L439.863 243.981C434.226 247.073 427.27 247.073 421.626 243.981Z" fill="#929292"/>
<path opacity="0.4762" d="M421.626 243.374L377.23 219.077V194.937H484.266V219.077L439.863 243.374C434.226 246.466 427.27 246.466 421.626 243.374Z" fill="#868686"/>
<path opacity="0.5238" d="M421.626 242.767L377.23 218.47V194.33H484.266V218.47L439.863 242.767C434.226 245.858 427.27 245.858 421.626 242.767Z" fill="#797979"/>
<path opacity="0.5714" d="M421.626 242.159L377.23 217.862V193.722H484.266V217.862L439.863 242.159C434.226 245.251 427.27 245.251 421.626 242.159Z" fill="#6D6D6D"/>
<path opacity="0.619" d="M421.626 241.559L377.23 217.262V193.122H484.266V217.262L439.863 241.559C434.226 244.643 427.27 244.643 421.626 241.559Z" fill="#616161"/>
<path opacity="0.6667" d="M421.626 240.951L377.23 216.654V192.514H484.266V216.654L439.863 240.951C434.226 244.036 427.27 244.036 421.626 240.951Z" fill="#555555"/>
<path opacity="0.7143" d="M421.626 240.344L377.23 216.047V191.907H484.266V216.047L439.863 240.344C434.226 243.435 427.27 243.435 421.626 240.344Z" fill="#494949"/>
<path opacity="0.7619" d="M421.626 239.736L377.23 215.439V191.299H484.266V215.439L439.863 239.736C434.226 242.828 427.27 242.828 421.626 239.736Z" fill="#3D3D3D"/>
<path opacity="0.8095" d="M421.626 239.129L377.23 214.832V190.692H484.266V214.832L439.863 239.129C434.226 242.221 427.27 242.221 421.626 239.129Z" fill="#313131"/>
<path opacity="0.8571" d="M421.626 238.521L377.23 214.224V190.084H484.266V214.224L439.863 238.521C434.226 241.613 427.27 241.613 421.626 238.521Z" fill="#242424"/>
<path opacity="0.9048" d="M421.626 237.921L377.23 213.624V189.484H484.266V213.624L439.863 237.921C434.226 241.006 427.27 241.006 421.626 237.921Z" fill="#181818"/>
<path opacity="0.9524" d="M421.626 237.313L377.23 213.016V188.876H484.266V213.016L439.863 237.313C434.226 240.398 427.27 240.398 421.626 237.313Z" fill="#0C0C0C"/>
<path d="M421.626 236.706L377.23 212.409V188.269H484.266V212.409L439.863 236.706C434.226 239.798 427.27 239.791 421.626 236.706Z" fill="black"/>
</g>
<path d="M492.574 207.952V174.107V148.124H368.929V174.107V207.952L430.748 241.784L492.574 207.952Z" fill="#CCA500"/>
<path opacity="0.2" d="M492.574 207.952V174.107V148.124H368.929V174.107V207.952L430.748 241.784L492.574 207.952Z" fill="url(#paint1_linear_130_2)"/>
<path opacity="0.3" d="M368.929 148.124V164.313H492.574V148.124H368.929Z" fill="url(#paint2_linear_130_2)"/>
<path opacity="0.2" d="M368.929 164.313V165.665H492.574V164.313H368.929Z" fill="url(#paint3_linear_130_2)"/>
<path d="M79.3018 200.431H186.337V467.609L132.812 496.902L79.3018 467.609V200.431Z" fill="#8C234F"/>
<path d="M132.812 493.067L82.8081 465.698V203.748H182.838V465.698L132.812 493.067Z" fill="#EAEAEA"/>
<path opacity="0.16" d="M82.8081 210.116V404.11H182.838V210.116H82.8081Z" fill="url(#paint4_linear_130_2)"/>
<g opacity="0.4">
<path opacity="0.0476" d="M123.697 248.834L79.3018 224.537V200.397H186.337V224.537L141.935 248.834C136.29 251.919 129.342 251.919 123.697 248.834Z" fill="#F3F3F3"/>
<path opacity="0.0952" d="M123.697 248.227L79.3018 223.93V199.79H186.337V223.93L141.935 248.227C136.29 251.318 129.342 251.318 123.697 248.227Z" fill="#E7E7E7"/>
<path opacity="0.1429" d="M123.697 247.619L79.3018 223.322V199.182H186.337V223.322L141.935 247.619C136.29 250.711 129.342 250.711 123.697 247.619Z" fill="#DBDBDB"/>
<path opacity="0.1905" d="M123.697 247.012L79.3018 222.715V198.575H186.337V222.715L141.935 247.012C136.29 250.103 129.342 250.103 123.697 247.012Z" fill="#CECECE"/>
<path opacity="0.2381" d="M123.697 246.404L79.3018 222.107V197.967H186.337V222.107L141.935 246.404C136.29 249.496 129.342 249.496 123.697 246.404Z" fill="#C2C2C2"/>
<path opacity="0.2857" d="M123.697 245.804L79.3018 221.507V197.367H186.337V221.507L141.935 245.804C136.29 248.889 129.342 248.889 123.697 245.804Z" fill="#B6B6B6"/>
<path opacity="0.3333" d="M123.697 245.196L79.3018 220.899V196.759H186.337V220.899L141.935 245.196C136.29 248.281 129.342 248.281 123.697 245.196Z" fill="#AAAAAA"/>
<path opacity="0.381" d="M123.697 244.589L79.3018 220.292V196.152H186.337V220.292L141.935 244.589C136.29 247.681 129.342 247.674 123.697 244.589Z" fill="#9E9E9E"/>
<path opacity="0.4286" d="M123.697 243.981L79.3018 219.684V195.544H186.337V219.684L141.935 243.981C136.29 247.073 129.342 247.073 123.697 243.981Z" fill="#929292"/>
<path opacity="0.4762" d="M123.697 243.374L79.3018 219.077V194.937H186.337V219.077L141.935 243.374C136.29 246.466 129.342 246.466 123.697 243.374Z" fill="#868686"/>
<path opacity="0.5238" d="M123.697 242.767L79.3018 218.47V194.33H186.337V218.47L141.935 242.767C136.29 245.858 129.342 245.858 123.697 242.767Z" fill="#797979"/>
<path opacity="0.5714" d="M123.697 242.159L79.3018 217.862V193.722H186.337V217.862L141.935 242.159C136.29 245.251 129.342 245.251 123.697 242.159Z" fill="#6D6D6D"/>
<path opacity="0.619" d="M123.697 241.559L79.3018 217.262V193.122H186.337V217.262L141.935 241.559C136.29 244.643 129.342 244.643 123.697 241.559Z" fill="#616161"/>
<path opacity="0.6667" d="M123.697 240.951L79.3018 216.654V192.514H186.337V216.654L141.935 240.951C136.29 244.036 129.342 244.036 123.697 240.951Z" fill="#555555"/>
<path opacity="0.7143" d="M123.697 240.344L79.3018 216.047V191.907H186.337V216.047L141.935 240.344C136.29 243.435 129.342 243.435 123.697 240.344Z" fill="#494949"/>
<path opacity="0.7619" d="M123.697 239.736L79.3018 215.439V191.299H186.337V215.439L141.935 239.736C136.29 242.828 129.342 242.828 123.697 239.736Z" fill="#3D3D3D"/>
<path opacity="0.8095" d="M123.697 239.129L79.3018 214.832V190.692H186.337V214.832L141.935 239.129C136.29 242.221 129.342 242.221 123.697 239.129Z" fill="#313131"/>
<path opacity="0.8571" d="M123.697 238.521L79.3018 214.224V190.084H186.337V214.224L141.935 238.521C136.29 241.613 129.342 241.613 123.697 238.521Z" fill="#242424"/>
<path opacity="0.9048" d="M123.697 237.921L79.3018 213.624V189.484H186.337V213.624L141.935 237.921C136.29 241.006 129.342 241.006 123.697 237.921Z" fill="#181818"/>
<path opacity="0.9524" d="M123.697 237.313L79.3018 213.016V188.876H186.337V213.016L141.935 237.313C136.29 240.398 129.342 240.398 123.697 237.313Z" fill="#0C0C0C"/>
<path d="M123.697 236.706L79.3018 212.409V188.269H186.337V212.409L141.935 236.706C136.29 239.798 129.342 239.791 123.697 236.706Z" fill="black"/>
</g>
<path d="M194.638 207.952V174.107V148.124H71V174.107V207.952L132.812 241.784L194.638 207.952Z" fill="#CCA500"/>
<path opacity="0.2" d="M194.638 207.952V174.107V148.124H71V174.107V207.952L132.819 241.784L194.638 207.952Z" fill="url(#paint5_linear_130_2)"/>
<path opacity="0.3" d="M71 148.124V164.313H194.638V148.124H71Z" fill="url(#paint6_linear_130_2)"/>
<path opacity="0.2" d="M71 164.313V165.665H194.638V164.313H71Z" fill="url(#paint7_linear_130_2)"/>
<path d="M228.507 200.431H335.543V467.609L282.025 496.902L228.507 467.609V200.431Z" fill="#8C234F"/>
<path d="M282.025 493.067L232.014 465.698V203.748H332.043V465.698L282.025 493.067Z" fill="#EAEAEA"/>
<path opacity="0.16" d="M232.014 210.116V404.11H332.043V210.116H232.014Z" fill="url(#paint8_linear_130_2)"/>
<g opacity="0.4">
<path opacity="0.0476" d="M272.903 248.834L228.507 224.537V200.397H335.543V224.537L291.14 248.834C285.503 251.919 278.547 251.919 272.903 248.834Z" fill="#F3F3F3"/>
<path opacity="0.0952" d="M272.903 248.227L228.507 223.93V199.79H335.543V223.93L291.14 248.227C285.503 251.318 278.547 251.318 272.903 248.227Z" fill="#E7E7E7"/>
<path opacity="0.1429" d="M272.903 247.619L228.507 223.322V199.182H335.543V223.322L291.14 247.619C285.503 250.711 278.547 250.711 272.903 247.619Z" fill="#DBDBDB"/>
<path opacity="0.1905" d="M272.903 247.012L228.507 222.715V198.575H335.543V222.715L291.14 247.012C285.503 250.103 278.547 250.103 272.903 247.012Z" fill="#CECECE"/>
<path opacity="0.2381" d="M272.903 246.404L228.507 222.107V197.967H335.543V222.107L291.14 246.404C285.503 249.496 278.547 249.496 272.903 246.404Z" fill="#C2C2C2"/>
<path opacity="0.2857" d="M272.903 245.804L228.507 221.507V197.367H335.543V221.507L291.14 245.804C285.503 248.889 278.547 248.889 272.903 245.804Z" fill="#B6B6B6"/>
<path opacity="0.3333" d="M272.903 245.196L228.507 220.899V196.759H335.543V220.899L291.14 245.196C285.503 248.281 278.547 248.281 272.903 245.196Z" fill="#AAAAAA"/>
<path opacity="0.381" d="M272.903 244.589L228.507 220.292V196.152H335.543V220.292L291.14 244.589C285.503 247.681 278.547 247.674 272.903 244.589Z" fill="#9E9E9E"/>
<path opacity="0.4286" d="M272.903 243.981L228.507 219.684V195.544H335.543V219.684L291.14 243.981C285.503 247.073 278.547 247.073 272.903 243.981Z" fill="#929292"/>
<path opacity="0.4762" d="M272.903 243.374L228.507 219.077V194.937H335.543V219.077L291.14 243.374C285.503 246.466 278.547 246.466 272.903 243.374Z" fill="#868686"/>
<path opacity="0.5238" d="M272.903 242.767L228.507 218.47V194.33H335.543V218.47L291.14 242.767C285.503 245.858 278.547 245.858 272.903 242.767Z" fill="#797979"/>
<path opacity="0.5714" d="M272.903 242.159L228.507 217.862V193.722H335.543V217.862L291.14 242.159C285.503 245.251 278.547 245.251 272.903 242.159Z" fill="#6D6D6D"/>
<path opacity="0.619" d="M272.903 241.559L228.507 217.262V193.122H335.543V217.262L291.14 241.559C285.503 244.643 278.547 244.643 272.903 241.559Z" fill="#616161"/>
<path opacity="0.6667" d="M272.903 240.951L228.507 216.654V192.514H335.543V216.654L291.14 240.951C285.503 244.036 278.547 244.036 272.903 240.951Z" fill="#555555"/>
<path opacity="0.7143" d="M272.903 240.344L228.507 216.047V191.907H335.543V216.047L291.14 240.344C285.503 243.435 278.547 243.435 272.903 240.344Z" fill="#494949"/>
<path opacity="0.7619" d="M272.903 239.736L228.507 215.439V191.299H335.543V215.439L291.14 239.736C285.503 242.828 278.547 242.828 272.903 239.736Z" fill="#3D3D3D"/>
<path opacity="0.8095" d="M272.903 239.129L228.507 214.832V190.692H335.543V214.832L291.14 239.129C285.503 242.221 278.547 242.221 272.903 239.129Z" fill="#313131"/>
<path opacity="0.8571" d="M272.903 238.521L228.507 214.224V190.084H335.543V214.224L291.14 238.521C285.503 241.613 278.547 241.613 272.903 238.521Z" fill="#242424"/>
<path opacity="0.9048" d="M272.903 237.921L228.507 213.624V189.484H335.543V213.624L291.14 237.921C285.503 241.006 278.547 241.006 272.903 237.921Z" fill="#181818"/>
<path opacity="0.9524" d="M272.903 237.313L228.507 213.016V188.876H335.543V213.016L291.14 237.313C285.503 240.398 278.547 240.398 272.903 237.313Z" fill="#0C0C0C"/>
<path d="M272.903 236.706L228.507 212.409V188.269H335.543V212.409L291.14 236.706C285.503 239.798 278.547 239.791 272.903 236.706Z" fill="black"/>
</g>
<path d="M343.851 207.952V174.107V148.124H220.206V174.107V207.952L282.025 241.784L343.851 207.952Z" fill="#CCA500"/>
<path opacity="0.2" d="M343.851 207.952V174.107V148.124H220.206V174.107V207.952L282.025 241.784L343.851 207.952Z" fill="url(#paint9_linear_130_2)"/>
<path opacity="0.3" d="M220.206 148.124V164.313H343.851V148.124H220.206Z" fill="url(#paint10_linear_130_2)"/>
<path opacity="0.2" d="M220.206 164.313V165.665H343.851V164.313H220.206Z" fill="url(#paint11_linear_130_2)"/>
<path d="M421.913 187.019C421.927 187.449 422.194 188.124 422.403 188.315C423.123 188.977 423.36 188.315 423.36 188.315C423.36 188.315 424.599 193.168 426.319 194.697C428.047 196.225 429.977 196.471 430.805 196.471C430.855 196.471 430.906 196.464 430.956 196.451C431.007 196.464 431.057 196.471 431.107 196.471C431.935 196.471 433.865 196.225 435.593 194.697C437.321 193.168 438.552 188.315 438.552 188.315C438.552 188.315 438.79 188.977 439.51 188.315C439.719 188.124 439.985 187.449 439.999 187.019C440.028 186.261 440.187 185.503 440.237 184.759C440.251 184.514 440.302 184.097 440.071 183.893C439.999 183.824 439.438 183.695 439.438 183.886C439.438 174.781 431.539 174.078 430.978 174.044C430.978 174.044 430.971 174.044 430.963 174.044C430.956 174.044 430.949 174.044 430.949 174.044C430.387 174.085 422.489 174.781 422.489 183.886C422.489 183.695 421.935 183.824 421.855 183.893C421.632 184.097 421.675 184.514 421.69 184.759C421.733 185.503 421.891 186.261 421.913 187.019Z" fill="white"/>
<path d="M451.735 208.101C451.512 206.879 451.289 205.719 451.13 204.948C450.634 202.545 441.007 200 439.654 199.126C438.3 198.253 437.234 196.478 437.234 196.478L433.246 208.053L432.022 201.092C432.144 201.023 432.252 200.928 432.317 200.812L433.138 199.385C433.498 198.758 433.31 198.007 432.67 198.007H429.214C428.573 198.007 428.378 198.758 428.746 199.385L429.566 200.812C429.638 200.935 429.739 201.03 429.862 201.092L428.638 208.053L424.656 196.478C424.656 196.478 423.59 198.253 422.237 199.126C420.883 200 411.257 202.545 410.76 204.948C410.602 205.719 410.378 206.886 410.155 208.101C409.615 211.036 411.754 213.8 414.871 214.203C418.889 214.714 426.888 215.452 430.942 215.452C434.995 215.452 447.012 214.203 447.012 214.203C450.137 213.807 452.275 211.036 451.735 208.101Z" fill="white"/>
<path d="M377.186 91.3936H182.369V114.858H377.186V91.3936Z" fill="#CCA500"/>
<path d="M218.592 82.4596L216.547 76.6447H204.235L202.14 82.4596H195.084L207.691 49.6109H212.998L225.655 82.4596H218.592ZM210.514 59.3024L206.136 71.253H214.747L210.514 59.3024Z" fill="#231F20"/>
<path d="M239.472 82.7395C234.216 82.7395 230.227 81.6816 226.814 78.4056L231.192 74.256C233.381 76.3308 236.354 77.0269 239.566 77.0269C243.554 77.0269 245.7 75.5937 245.7 72.9661C245.7 71.8126 245.362 70.8435 244.627 70.1951C243.943 69.5945 243.166 69.2737 241.56 69.0417L237.377 68.4888C234.41 68.0725 232.214 67.1989 230.659 65.7657C229.003 64.1959 228.175 62.0734 228.175 59.3092C228.175 53.4534 232.747 49.3447 240.242 49.3447C245.009 49.3447 248.465 50.4504 251.438 53.1736L247.154 57.1867C244.966 55.2006 242.338 54.9276 240.048 54.9276C236.448 54.9276 234.691 56.8181 234.691 59.0772C234.691 59.9098 234.986 60.7834 235.714 61.4318C236.398 62.0324 237.514 62.5375 238.925 62.7217L243.014 63.2745C246.175 63.6909 248.177 64.5235 249.631 65.8134C251.482 67.4719 252.31 69.8743 252.31 72.7818C252.324 79.1358 246.722 82.7395 239.472 82.7395Z" fill="#231F20"/>
<path d="M268.236 82.7395C262.98 82.7395 258.991 81.6816 255.579 78.4056L259.956 74.256C262.145 76.3308 265.119 77.0269 268.33 77.0269C272.319 77.0269 274.464 75.5937 274.464 72.9661C274.464 71.8126 274.126 70.8435 273.391 70.1951C272.707 69.5945 271.93 69.2737 270.324 69.0417L266.141 68.4888C263.175 68.0725 260.979 67.1989 259.423 65.7657C257.767 64.1959 256.939 62.0734 256.939 59.3092C256.939 53.4534 261.511 49.3447 269.007 49.3447C273.773 49.3447 277.229 50.4504 280.203 53.1736L275.919 57.1867C273.73 55.2006 271.102 54.9276 268.812 54.9276C265.212 54.9276 263.455 56.8181 263.455 59.0772C263.455 59.9098 263.751 60.7834 264.478 61.4318C265.162 62.0324 266.278 62.5375 267.689 62.7217L271.779 63.2745C274.939 63.6909 276.941 64.5235 278.395 65.8134C280.246 67.4719 281.074 69.8743 281.074 72.7818C281.088 79.1358 275.487 82.7395 268.236 82.7395Z" fill="#231F20"/>
<path d="M287.46 82.4596V49.6109H310.284V55.3302H294.221V63.0357H307.894V68.755H294.221V76.7334H310.284V82.4528H287.46V82.4596Z" fill="#231F20"/>
<path d="M330.149 55.3302V82.4596H323.381V55.3302H314.331V49.6109H339.199V55.3302H330.149Z" fill="#231F20"/>
<path d="M354.24 82.7395C348.984 82.7395 344.995 81.6816 341.583 78.4056L345.96 74.256C348.149 76.3308 351.123 77.0269 354.334 77.0269C358.323 77.0269 360.468 75.5937 360.468 72.9661C360.468 71.8126 360.13 70.8435 359.395 70.1951C358.711 69.5945 357.934 69.2737 356.328 69.0417L352.145 68.4888C349.179 68.0725 346.983 67.1989 345.427 65.7657C343.771 64.1959 342.943 62.0734 342.943 59.3092C342.943 53.4534 347.515 49.3447 355.011 49.3447C359.777 49.3447 363.233 50.4504 366.207 53.1736L361.923 57.1867C359.734 55.2006 357.106 54.9276 354.816 54.9276C351.216 54.9276 349.459 56.8181 349.459 59.0772C349.459 59.9098 349.755 60.7834 350.482 61.4318C351.166 62.0324 352.282 62.5375 353.693 62.7217L357.783 63.2745C360.943 63.6909 362.945 64.5235 364.399 65.8134C366.25 67.4719 367.078 69.8743 367.078 72.7818C367.085 79.1358 361.491 82.7395 354.24 82.7395Z" fill="#231F20"/>
<path d="M218.592 82.4596L216.547 76.6447H204.235L202.14 82.4596H195.084L207.691 49.6109H212.998L225.655 82.4596H218.592ZM210.514 59.3024L206.136 71.253H214.747L210.514 59.3024Z" fill="#231F20"/>
<path d="M239.472 82.7395C234.216 82.7395 230.227 81.6816 226.814 78.4056L231.192 74.256C233.381 76.3308 236.354 77.0269 239.566 77.0269C243.554 77.0269 245.7 75.5937 245.7 72.9661C245.7 71.8126 245.362 70.8435 244.627 70.1951C243.943 69.5945 243.166 69.2737 241.56 69.0417L237.377 68.4888C234.41 68.0725 232.214 67.1989 230.659 65.7657C229.003 64.1959 228.175 62.0734 228.175 59.3092C228.175 53.4534 232.747 49.3447 240.242 49.3447C245.009 49.3447 248.465 50.4504 251.438 53.1736L247.154 57.1867C244.966 55.2006 242.338 54.9276 240.048 54.9276C236.448 54.9276 234.691 56.8181 234.691 59.0772C234.691 59.9098 234.986 60.7834 235.714 61.4318C236.398 62.0324 237.514 62.5375 238.925 62.7217L243.014 63.2745C246.175 63.6909 248.177 64.5235 249.631 65.8134C251.482 67.4719 252.31 69.8743 252.31 72.7818C252.324 79.1358 246.722 82.7395 239.472 82.7395Z" fill="#231F20"/>
<path d="M268.236 82.7395C262.98 82.7395 258.991 81.6816 255.579 78.4056L259.956 74.256C262.145 76.3308 265.119 77.0269 268.33 77.0269C272.319 77.0269 274.464 75.5937 274.464 72.9661C274.464 71.8126 274.126 70.8435 273.391 70.1951C272.707 69.5945 271.93 69.2737 270.324 69.0417L266.141 68.4888C263.175 68.0725 260.979 67.1989 259.423 65.7657C257.767 64.1959 256.939 62.0734 256.939 59.3092C256.939 53.4534 261.511 49.3447 269.007 49.3447C273.773 49.3447 277.229 50.4504 280.203 53.1736L275.919 57.1867C273.73 55.2006 271.102 54.9276 268.812 54.9276C265.212 54.9276 263.455 56.8181 263.455 59.0772C263.455 59.9098 263.751 60.7834 264.478 61.4318C265.162 62.0324 266.278 62.5375 267.689 62.7217L271.779 63.2745C274.939 63.6909 276.941 64.5235 278.395 65.8134C280.246 67.4719 281.074 69.8743 281.074 72.7818C281.088 79.1358 275.487 82.7395 268.236 82.7395Z" fill="#231F20"/>
<path d="M287.46 82.4596V49.6109H310.284V55.3302H294.221V63.0357H307.894V68.755H294.221V76.7334H310.284V82.4528H287.46V82.4596Z" fill="#231F20"/>
<path d="M330.149 55.3302V82.4596H323.381V55.3302H314.331V49.6109H339.199V55.3302H330.149Z" fill="#231F20"/>
<path d="M354.24 82.7395C348.984 82.7395 344.995 81.6816 341.583 78.4056L345.96 74.256C348.149 76.3308 351.123 77.0269 354.334 77.0269C358.323 77.0269 360.468 75.5937 360.468 72.9661C360.468 71.8126 360.13 70.8435 359.395 70.1951C358.711 69.5945 357.934 69.2737 356.328 69.0417L352.145 68.4888C349.179 68.0725 346.983 67.1989 345.427 65.7657C343.771 64.1959 342.943 62.0734 342.943 59.3092C342.943 53.4534 347.515 49.3447 355.011 49.3447C359.777 49.3447 363.233 50.4504 366.207 53.1736L361.923 57.1867C359.734 55.2006 357.106 54.9276 354.816 54.9276C351.216 54.9276 349.459 56.8181 349.459 59.0772C349.459 59.9098 349.755 60.7834 350.482 61.4318C351.166 62.0324 352.282 62.5375 353.693 62.7217L357.783 63.2745C360.943 63.6909 362.945 64.5235 364.399 65.8134C366.25 67.4719 367.078 69.8743 367.078 72.7818C367.085 79.1358 361.491 82.7395 354.24 82.7395Z" fill="#231F20"/>
<path d="M218.592 82.4596L216.547 76.6447H204.235L202.14 82.4596H195.084L207.691 49.6109H212.998L225.655 82.4596H218.592ZM210.514 59.3024L206.136 71.253H214.747L210.514 59.3024Z" fill="#CCA500"/>
<path d="M239.472 82.7395C234.216 82.7395 230.227 81.6816 226.814 78.4056L231.192 74.256C233.381 76.3308 236.354 77.0269 239.566 77.0269C243.554 77.0269 245.7 75.5937 245.7 72.9661C245.7 71.8126 245.362 70.8435 244.627 70.1951C243.943 69.5945 243.166 69.2737 241.56 69.0417L237.377 68.4888C234.41 68.0725 232.214 67.1989 230.659 65.7657C229.003 64.1959 228.175 62.0734 228.175 59.3092C228.175 53.4534 232.747 49.3447 240.242 49.3447C245.009 49.3447 248.465 50.4504 251.438 53.1736L247.154 57.1867C244.966 55.2006 242.338 54.9276 240.048 54.9276C236.448 54.9276 234.691 56.8181 234.691 59.0772C234.691 59.9098 234.986 60.7834 235.714 61.4318C236.398 62.0324 237.514 62.5375 238.925 62.7217L243.014 63.2745C246.175 63.6909 248.177 64.5235 249.631 65.8134C251.482 67.4719 252.31 69.8743 252.31 72.7818C252.324 79.1358 246.722 82.7395 239.472 82.7395Z" fill="#CCA500"/>
<path d="M268.236 82.7395C262.98 82.7395 258.991 81.6816 255.579 78.4056L259.956 74.256C262.145 76.3308 265.119 77.0269 268.33 77.0269C272.319 77.0269 274.464 75.5937 274.464 72.9661C274.464 71.8126 274.126 70.8435 273.391 70.1951C272.707 69.5945 271.93 69.2737 270.324 69.0417L266.141 68.4888C263.175 68.0725 260.979 67.1989 259.423 65.7657C257.767 64.1959 256.939 62.0734 256.939 59.3092C256.939 53.4534 261.511 49.3447 269.007 49.3447C273.773 49.3447 277.229 50.4504 280.203 53.1736L275.919 57.1867C273.73 55.2006 271.102 54.9276 268.812 54.9276C265.212 54.9276 263.455 56.8181 263.455 59.0772C263.455 59.9098 263.751 60.7834 264.478 61.4318C265.162 62.0324 266.278 62.5375 267.689 62.7217L271.779 63.2745C274.939 63.6909 276.941 64.5235 278.395 65.8134C280.246 67.4719 281.074 69.8743 281.074 72.7818C281.088 79.1358 275.487 82.7395 268.236 82.7395Z" fill="#CCA500"/>
<path d="M287.46 82.4596V49.6109H310.284V55.3302H294.221V63.0357H307.894V68.755H294.221V76.7334H310.284V82.4528H287.46V82.4596Z" fill="#CCA500"/>
<path d="M330.149 55.3302V82.4596H323.381V55.3302H314.331V49.6109H339.199V55.3302H330.149Z" fill="#CCA500"/>
<path d="M354.24 82.7395C348.984 82.7395 344.995 81.6816 341.583 78.4056L345.96 74.256C348.149 76.3308 351.123 77.0269 354.334 77.0269C358.323 77.0269 360.468 75.5937 360.468 72.9661C360.468 71.8126 360.13 70.8435 359.395 70.1951C358.711 69.5945 357.934 69.2737 356.328 69.0417L352.145 68.4888C349.179 68.0725 346.983 67.1989 345.427 65.7657C343.771 64.1959 342.943 62.0734 342.943 59.3092C342.943 53.4534 347.515 49.3447 355.011 49.3447C359.777 49.3447 363.233 50.4504 366.207 53.1736L361.923 57.1867C359.734 55.2006 357.106 54.9276 354.816 54.9276C351.216 54.9276 349.459 56.8181 349.459 59.0772C349.459 59.9098 349.755 60.7834 350.482 61.4318C351.166 62.0324 352.282 62.5375 353.693 62.7217L357.783 63.2745C360.943 63.6909 362.945 64.5235 364.399 65.8134C366.25 67.4719 367.078 69.8743 367.078 72.7818C367.085 79.1358 361.491 82.7395 354.24 82.7395Z" fill="#CCA500"/>
<path d="M221.508 104.875C221.508 107.635 219.208 109.195 216.228 109.195C214.068 109.195 212.428 108.735 211.028 107.315L212.828 105.515C213.728 106.415 214.948 106.715 216.268 106.715C217.908 106.715 218.788 106.095 218.788 104.955C218.788 104.455 218.648 104.035 218.348 103.755C218.068 103.495 217.748 103.355 217.088 103.255L215.368 103.015C214.148 102.835 213.248 102.455 212.608 101.835C211.928 101.155 211.588 100.235 211.588 99.0347C211.588 96.4947 213.468 94.7147 216.548 94.7147C218.508 94.7147 219.928 95.1947 221.148 96.3747L219.388 98.1147C218.488 97.2547 217.408 97.1347 216.468 97.1347C214.988 97.1347 214.268 97.9547 214.268 98.9347C214.268 99.2947 214.388 99.6747 214.688 99.9547C214.968 100.215 215.428 100.435 216.008 100.515L217.688 100.755C218.988 100.935 219.808 101.295 220.408 101.855C221.168 102.575 221.508 103.615 221.508 104.875ZM232.485 104.675H225.965C225.965 106.015 226.785 106.995 228.245 106.995C229.385 106.995 229.945 106.675 230.605 106.015L232.185 107.555C231.125 108.615 230.105 109.195 228.225 109.195C225.765 109.195 223.405 108.075 223.405 103.855C223.405 100.455 225.245 98.5347 227.945 98.5347C230.845 98.5347 232.485 100.655 232.485 103.515V104.675ZM229.925 102.895C229.905 102.435 229.845 102.155 229.685 101.775C229.405 101.155 228.825 100.695 227.945 100.695C227.065 100.695 226.485 101.155 226.205 101.775C226.045 102.155 225.985 102.435 225.965 102.895H229.925ZM242.502 99.5147L240.542 101.495C240.142 101.095 239.802 100.875 239.162 100.875C238.362 100.875 237.482 101.475 237.482 102.795V109.075H234.882V98.6547H237.422V99.6547C237.922 99.0547 238.922 98.5347 240.042 98.5347C241.062 98.5347 241.782 98.7947 242.502 99.5147ZM252.303 98.6547L248.483 109.075H246.443L242.603 98.6547H245.343L247.463 105.095L249.563 98.6547H252.303ZM256.467 96.8747H253.807V94.7547H256.467V96.8747ZM256.447 109.075H253.847V98.6547H256.447V109.075ZM266.935 107.775C266.015 108.735 264.935 109.195 263.495 109.195C261.415 109.195 258.835 108.075 258.835 103.855C258.835 99.6347 261.415 98.5347 263.495 98.5347C264.935 98.5347 266.015 98.9747 266.935 99.9347L265.175 101.695C264.635 101.115 264.175 100.875 263.495 100.875C262.875 100.875 262.395 101.095 262.015 101.555C261.615 102.055 261.435 102.755 261.435 103.855C261.435 104.955 261.615 105.675 262.015 106.175C262.395 106.635 262.875 106.855 263.495 106.855C264.175 106.855 264.635 106.615 265.175 106.035L266.935 107.775ZM277.172 104.675H270.652C270.652 106.015 271.472 106.995 272.932 106.995C274.072 106.995 274.632 106.675 275.292 106.015L276.872 107.555C275.812 108.615 274.792 109.195 272.912 109.195C270.452 109.195 268.092 108.075 268.092 103.855C268.092 100.455 269.932 98.5347 272.632 98.5347C275.532 98.5347 277.172 100.655 277.172 103.515V104.675ZM274.612 102.895C274.592 102.435 274.532 102.155 274.372 101.775C274.092 101.155 273.512 100.695 272.632 100.695C271.752 100.695 271.172 101.155 270.892 101.775C270.732 102.155 270.672 102.435 270.652 102.895H274.612ZM285.449 104.575H279.289V102.155H285.449V104.575ZM297.525 109.075H288.285V94.8347H291.065V106.595H297.525V109.075ZM302.209 96.8747H299.549V94.7547H302.209V96.8747ZM302.189 109.075H299.589V98.6547H302.189V109.075ZM313.757 109.075H311.157V102.775C311.157 101.355 310.257 100.875 309.437 100.875C308.617 100.875 307.697 101.355 307.697 102.775V109.075H305.097V98.6547H307.637V99.6147C308.317 98.8947 309.277 98.5347 310.237 98.5347C311.277 98.5347 312.117 98.8747 312.697 99.4547C313.537 100.295 313.757 101.275 313.757 102.415V109.075ZM325.122 104.675H318.602C318.602 106.015 319.422 106.995 320.882 106.995C322.022 106.995 322.582 106.675 323.242 106.015L324.822 107.555C323.762 108.615 322.742 109.195 320.862 109.195C318.402 109.195 316.042 108.075 316.042 103.855C316.042 100.455 317.882 98.5347 320.582 98.5347C323.482 98.5347 325.122 100.655 325.122 103.515V104.675ZM322.562 102.895C322.542 102.435 322.482 102.155 322.322 101.775C322.042 101.155 321.462 100.695 320.582 100.695C319.702 100.695 319.122 101.155 318.842 101.775C318.682 102.155 318.622 102.435 318.602 102.895H322.562ZM335.359 105.795C335.359 108.095 333.399 109.195 330.939 109.195C329.299 109.195 327.819 109.015 326.499 107.695L328.199 105.995C329.059 106.855 330.179 106.975 330.979 106.975C331.879 106.975 332.819 106.675 332.819 105.895C332.819 105.375 332.539 105.015 331.719 104.935L330.079 104.775C328.199 104.595 327.039 103.775 327.039 101.855C327.039 99.6947 328.939 98.5347 331.059 98.5347C332.679 98.5347 334.039 98.8147 335.039 99.7547L333.439 101.375C332.839 100.835 331.919 100.675 331.019 100.675C329.979 100.675 329.539 101.155 329.539 101.675C329.539 102.055 329.699 102.495 330.619 102.575L332.259 102.735C334.319 102.935 335.359 104.035 335.359 105.795Z" fill="white"/>
<path d="M126.151 415.335C127.267 416.393 127.764 417.902 127.764 419.574V425.361H110.844V419.574C110.844 417.908 111.341 416.4 112.457 415.335C114.357 413.534 116.683 413.711 119.232 413.711C121.773 413.711 124.25 413.534 126.151 415.335ZM114.84 417.519C114.149 418.059 113.796 418.782 113.796 419.86V422.229H124.819V419.86C124.819 418.782 124.459 418.059 123.775 417.519C123.012 416.932 121.802 416.844 119.239 416.844C116.676 416.844 115.596 416.932 114.84 417.519Z" fill="#231F20"/>
<path d="M127.764 410.517H110.844V399.952H113.789V407.384H117.756V401.057H120.701V407.384H124.812V399.952H127.757V410.517H127.764Z" fill="#231F20"/>
<path d="M127.764 391.059V393.4L110.844 398.696V395.454L121.867 392.233L110.844 389.011V385.742L127.764 391.059Z" fill="#231F20"/>
<path d="M127.764 383.804H110.844V373.239H113.789V380.671H117.756V374.344H120.701V380.671H124.812V373.239H127.757V383.804H127.764Z" fill="#231F20"/>
<path d="M127.764 370.181H110.844V367.049H124.819V359.773H127.764V370.181Z" fill="#231F20"/>
<path d="M126.058 347.522C127.246 348.648 127.908 350.02 127.908 351.849C127.908 353.672 127.246 355.071 126.058 356.197C124.344 357.821 122.234 357.773 119.311 357.773C116.388 357.773 114.271 357.821 112.565 356.197C111.377 355.071 110.714 353.672 110.714 351.849C110.714 350.027 111.377 348.648 112.565 347.522C114.278 345.898 116.388 345.925 119.311 345.925C122.234 345.925 124.344 345.898 126.058 347.522ZM114.552 349.843C114.005 350.293 113.652 350.989 113.652 351.849C113.652 352.702 114.012 353.426 114.552 353.876C115.265 354.484 116.05 354.641 119.304 354.641C122.558 354.641 123.343 354.484 124.056 353.876C124.603 353.426 124.956 352.702 124.956 351.849C124.956 350.996 124.596 350.293 124.056 349.843C123.343 349.235 122.558 349.058 119.304 349.058C116.05 349.058 115.265 349.235 114.552 349.843Z" fill="#231F20"/>
<path d="M121.399 336.513V339.598H127.771V342.731H110.851V336.513C110.851 333.203 113.249 331.217 116.129 331.217C119.009 331.217 121.399 333.197 121.399 336.513ZM113.796 336.67V339.598H118.433V336.67C118.433 335.251 117.504 334.35 116.129 334.35C114.753 334.35 113.796 335.251 113.796 336.67Z" fill="#231F20"/>
<path d="M127.764 317.185H117.9L124.315 320.249V322.365L117.9 325.45H127.764V328.583H110.844V325.498L119.995 321.307L110.844 317.137V314.052H127.764V317.185Z" fill="#231F20"/>
<path d="M127.764 310.319H110.844V299.754H113.789V307.186H117.756V300.86H120.701V307.186H124.812V299.754H127.757V310.319H127.764Z" fill="#231F20"/>
<path d="M127.764 287.21L117.381 293.564H127.764V296.696H110.844V293.905L121.205 287.551H110.844V284.418H127.764V287.21Z" fill="#231F20"/>
<path d="M113.796 274.556H127.771V277.689H113.796V281.873H110.851V270.359H113.796V274.556Z" fill="#231F20"/>
<path d="M160.02 404.381H150.156L156.571 407.446V409.561L150.156 412.646H160.02V415.779H143.1V412.694L152.251 408.504L143.1 404.333V401.249H160.02V404.381Z" fill="#231F20"/>
<path d="M160.02 388.39L157.025 389.339V395.038L160.02 396.007V399.276L143.1 393.441V390.984L160.02 385.128V388.39ZM148.09 392.13L154.246 394.157V390.172L148.09 392.13Z" fill="#231F20"/>
<path d="M160.02 373.662L149.638 380.016H160.02V383.149H143.1V380.357L153.461 374.003H143.1V370.871H160.02V373.662Z" fill="#231F20"/>
<path d="M160.02 358.005L157.025 358.954V364.653L160.02 365.622V368.891L143.1 363.056V360.599L160.02 354.743V358.005ZM148.09 361.745L154.246 363.773V359.787L148.09 361.745Z" fill="#231F20"/>
<path d="M158.241 342.874C159.645 344.157 160.164 345.693 160.164 347.399C160.164 349.153 159.501 350.6 158.313 351.726C156.6 353.351 154.49 353.303 151.567 353.303C148.644 353.303 146.527 353.351 144.821 351.726C143.633 350.6 142.97 349.201 142.97 347.399C142.97 343.68 145.533 341.789 148.385 341.366V344.519C146.793 344.881 145.915 345.802 145.915 347.399C145.915 348.252 146.275 348.955 146.815 349.406C147.528 350.013 148.313 350.17 151.567 350.17C154.821 350.17 155.628 350.013 156.341 349.406C156.888 348.955 157.219 348.259 157.219 347.399C157.219 346.451 156.859 345.686 156.269 345.168C155.649 344.649 154.893 344.444 154.008 344.444H153.367V347.393H150.609V341.332H153.079C155.527 341.339 157.003 341.748 158.241 342.874Z" fill="#231F20"/>
<path d="M160.02 326.767H150.156L156.571 329.832V331.948L150.156 335.032H160.02V338.165H143.1V335.08L152.251 330.89L143.1 326.72V323.635H160.02V326.767Z" fill="#231F20"/>
<path d="M160.02 319.901H143.1V309.336H146.045V316.769H150.012V310.442H152.957V316.769H157.068V309.336H160.013V319.901H160.02Z" fill="#231F20"/>
<path d="M160.02 296.792L149.638 303.146H160.02V306.279H143.1V303.487L153.461 297.133H143.1V294.001H160.02V296.792Z" fill="#231F20"/>
<path d="M146.045 284.138H160.02V287.271H146.045V291.462H143.1V279.948H146.045V284.138Z" fill="#231F20"/>
<path d="M126.151 415.335C127.267 416.393 127.764 417.902 127.764 419.574V425.361H110.844V419.574C110.844 417.908 111.341 416.4 112.457 415.335C114.357 413.534 116.683 413.711 119.232 413.711C121.773 413.711 124.25 413.534 126.151 415.335ZM114.84 417.519C114.149 418.059 113.796 418.782 113.796 419.86V422.229H124.819V419.86C124.819 418.782 124.459 418.059 123.775 417.519C123.012 416.932 121.802 416.844 119.239 416.844C116.676 416.844 115.596 416.932 114.84 417.519Z" fill="#606060"/>
<path d="M127.764 410.517H110.844V399.952H113.789V407.384H117.756V401.057H120.701V407.384H124.812V399.952H127.757V410.517H127.764Z" fill="#606060"/>
<path d="M127.764 391.059V393.4L110.844 398.696V395.454L121.867 392.233L110.844 389.011V385.742L127.764 391.059Z" fill="#606060"/>
<path d="M127.764 383.804H110.844V373.239H113.789V380.671H117.756V374.344H120.701V380.671H124.812V373.239H127.757V383.804H127.764Z" fill="#606060"/>
<path d="M127.764 370.181H110.844V367.049H124.819V359.773H127.764V370.181Z" fill="#606060"/>
<path d="M126.058 347.522C127.246 348.648 127.908 350.02 127.908 351.849C127.908 353.672 127.246 355.071 126.058 356.197C124.344 357.821 122.234 357.773 119.311 357.773C116.388 357.773 114.271 357.821 112.565 356.197C111.377 355.071 110.714 353.672 110.714 351.849C110.714 350.027 111.377 348.648 112.565 347.522C114.278 345.898 116.388 345.925 119.311 345.925C122.234 345.925 124.344 345.898 126.058 347.522ZM114.552 349.843C114.005 350.293 113.652 350.989 113.652 351.849C113.652 352.702 114.012 353.426 114.552 353.876C115.265 354.484 116.05 354.641 119.304 354.641C122.558 354.641 123.343 354.484 124.056 353.876C124.603 353.426 124.956 352.702 124.956 351.849C124.956 350.996 124.596 350.293 124.056 349.843C123.343 349.235 122.558 349.058 119.304 349.058C116.05 349.058 115.265 349.235 114.552 349.843Z" fill="#606060"/>
<path d="M121.399 336.513V339.598H127.771V342.731H110.851V336.513C110.851 333.203 113.249 331.217 116.129 331.217C119.009 331.217 121.399 333.197 121.399 336.513ZM113.796 336.67V339.598H118.433V336.67C118.433 335.251 117.504 334.35 116.129 334.35C114.753 334.35 113.796 335.251 113.796 336.67Z" fill="#606060"/>
<path d="M127.764 317.185H117.9L124.315 320.249V322.365L117.9 325.45H127.764V328.583H110.844V325.498L119.995 321.307L110.844 317.137V314.052H127.764V317.185Z" fill="#606060"/>
<path d="M127.764 310.319H110.844V299.754H113.789V307.186H117.756V300.86H120.701V307.186H124.812V299.754H127.757V310.319H127.764Z" fill="#606060"/>
<path d="M127.764 287.21L117.381 293.564H127.764V296.696H110.844V293.905L121.205 287.551H110.844V284.418H127.764V287.21Z" fill="#606060"/>
<path d="M113.796 274.556H127.771V277.689H113.796V281.873H110.851V270.359H113.796V274.556Z" fill="#606060"/>
<path d="M160.02 404.381H150.156L156.571 407.446V409.561L150.156 412.646H160.02V415.779H143.1V412.694L152.251 408.504L143.1 404.333V401.249H160.02V404.381Z" fill="#606060"/>
<path d="M160.02 388.39L157.025 389.339V395.038L160.02 396.007V399.276L143.1 393.441V390.984L160.02 385.128V388.39ZM148.09 392.13L154.246 394.157V390.172L148.09 392.13Z" fill="#606060"/>
<path d="M160.02 373.662L149.638 380.016H160.02V383.149H143.1V380.357L153.461 374.003H143.1V370.871H160.02V373.662Z" fill="#606060"/>
<path d="M160.02 358.005L157.025 358.954V364.653L160.02 365.622V368.891L143.1 363.056V360.599L160.02 354.743V358.005ZM148.09 361.745L154.246 363.773V359.787L148.09 361.745Z" fill="#606060"/>
<path d="M158.241 342.874C159.645 344.157 160.164 345.693 160.164 347.399C160.164 349.153 159.501 350.6 158.313 351.726C156.6 353.351 154.49 353.303 151.567 353.303C148.644 353.303 146.527 353.351 144.821 351.726C143.633 350.6 142.97 349.201 142.97 347.399C142.97 343.68 145.533 341.789 148.385 341.366V344.519C146.793 344.881 145.915 345.802 145.915 347.399C145.915 348.252 146.275 348.955 146.815 349.406C147.528 350.013 148.313 350.17 151.567 350.17C154.821 350.17 155.628 350.013 156.341 349.406C156.888 348.955 157.219 348.259 157.219 347.399C157.219 346.451 156.859 345.686 156.269 345.168C155.649 344.649 154.893 344.444 154.008 344.444H153.367V347.393H150.609V341.332H153.079C155.527 341.339 157.003 341.748 158.241 342.874Z" fill="#606060"/>
<path d="M160.02 326.767H150.156L156.571 329.832V331.948L150.156 335.032H160.02V338.165H143.1V335.08L152.251 330.89L143.1 326.72V323.635H160.02V326.767Z" fill="#606060"/>
<path d="M160.02 319.901H143.1V309.336H146.045V316.769H150.012V310.442H152.957V316.769H157.068V309.336H160.013V319.901H160.02Z" fill="#606060"/>
<path d="M160.02 296.792L149.638 303.146H160.02V306.279H143.1V303.487L153.461 297.133H143.1V294.001H160.02V296.792Z" fill="#606060"/>
<path d="M146.045 284.138H160.02V287.271H146.045V291.462H143.1V279.948H146.045V284.138Z" fill="#606060"/>
<path d="M126.151 415.335C127.267 416.393 127.764 417.902 127.764 419.574V425.361H110.844V419.574C110.844 417.908 111.341 416.4 112.457 415.335C114.357 413.534 116.683 413.711 119.232 413.711C121.773 413.711 124.25 413.534 126.151 415.335ZM114.84 417.519C114.149 418.059 113.796 418.782 113.796 419.86V422.229H124.819V419.86C124.819 418.782 124.459 418.059 123.775 417.519C123.012 416.932 121.802 416.844 119.239 416.844C116.676 416.844 115.596 416.932 114.84 417.519Z" fill="#231F20"/>
<path d="M127.764 410.517H110.844V399.952H113.789V407.384H117.756V401.057H120.701V407.384H124.812V399.952H127.757V410.517H127.764Z" fill="#231F20"/>
<path d="M127.764 391.059V393.4L110.844 398.696V395.454L121.867 392.233L110.844 389.011V385.742L127.764 391.059Z" fill="#231F20"/>
<path d="M127.764 383.804H110.844V373.239H113.789V380.671H117.756V374.344H120.701V380.671H124.812V373.239H127.757V383.804H127.764Z" fill="#231F20"/>
<path d="M127.764 370.181H110.844V367.049H124.819V359.773H127.764V370.181Z" fill="#231F20"/>
<path d="M126.058 347.522C127.246 348.648 127.908 350.02 127.908 351.849C127.908 353.672 127.246 355.071 126.058 356.197C124.344 357.821 122.234 357.773 119.311 357.773C116.388 357.773 114.271 357.821 112.565 356.197C111.377 355.071 110.714 353.672 110.714 351.849C110.714 350.027 111.377 348.648 112.565 347.522C114.278 345.898 116.388 345.925 119.311 345.925C122.234 345.925 124.344 345.898 126.058 347.522ZM114.552 349.843C114.005 350.293 113.652 350.989 113.652 351.849C113.652 352.702 114.012 353.426 114.552 353.876C115.265 354.484 116.05 354.641 119.304 354.641C122.558 354.641 123.343 354.484 124.056 353.876C124.603 353.426 124.956 352.702 124.956 351.849C124.956 350.996 124.596 350.293 124.056 349.843C123.343 349.235 122.558 349.058 119.304 349.058C116.05 349.058 115.265 349.235 114.552 349.843Z" fill="#231F20"/>
<path d="M121.399 336.513V339.598H127.771V342.731H110.851V336.513C110.851 333.203 113.249 331.217 116.129 331.217C119.009 331.217 121.399 333.197 121.399 336.513ZM113.796 336.67V339.598H118.433V336.67C118.433 335.251 117.504 334.35 116.129 334.35C114.753 334.35 113.796 335.251 113.796 336.67Z" fill="#231F20"/>
<path d="M127.764 317.185H117.9L124.315 320.249V322.365L117.9 325.45H127.764V328.583H110.844V325.498L119.995 321.307L110.844 317.137V314.052H127.764V317.185Z" fill="#231F20"/>
<path d="M127.764 310.319H110.844V299.754H113.789V307.186H117.756V300.86H120.701V307.186H124.812V299.754H127.757V310.319H127.764Z" fill="#231F20"/>
<path d="M127.764 287.21L117.381 293.564H127.764V296.696H110.844V293.905L121.205 287.551H110.844V284.418H127.764V287.21Z" fill="#231F20"/>
<path d="M113.796 274.556H127.771V277.689H113.796V281.873H110.851V270.359H113.796V274.556Z" fill="#231F20"/>
<path d="M160.02 404.381H150.156L156.571 407.446V409.561L150.156 412.646H160.02V415.779H143.1V412.694L152.251 408.504L143.1 404.333V401.249H160.02V404.381Z" fill="#231F20"/>
<path d="M160.02 388.39L157.025 389.339V395.038L160.02 396.007V399.276L143.1 393.441V390.984L160.02 385.128V388.39ZM148.09 392.13L154.246 394.157V390.172L148.09 392.13Z" fill="#231F20"/>
<path d="M160.02 373.662L149.638 380.016H160.02V383.149H143.1V380.357L153.461 374.003H143.1V370.871H160.02V373.662Z" fill="#231F20"/>
<path d="M160.02 358.005L157.025 358.954V364.653L160.02 365.622V368.891L143.1 363.056V360.599L160.02 354.743V358.005ZM148.09 361.745L154.246 363.773V359.787L148.09 361.745Z" fill="#231F20"/>
<path d="M158.241 342.874C159.645 344.157 160.164 345.693 160.164 347.399C160.164 349.153 159.501 350.6 158.313 351.726C156.6 353.351 154.49 353.303 151.567 353.303C148.644 353.303 146.527 353.351 144.821 351.726C143.633 350.6 142.97 349.201 142.97 347.399C142.97 343.68 145.533 341.789 148.385 341.366V344.519C146.793 344.881 145.915 345.802 145.915 347.399C145.915 348.252 146.275 348.955 146.815 349.406C147.528 350.013 148.313 350.17 151.567 350.17C154.821 350.17 155.628 350.013 156.341 349.406C156.888 348.955 157.219 348.259 157.219 347.399C157.219 346.451 156.859 345.686 156.269 345.168C155.649 344.649 154.893 344.444 154.008 344.444H153.367V347.393H150.609V341.332H153.079C155.527 341.339 157.003 341.748 158.241 342.874Z" fill="#231F20"/>
<path d="M160.02 326.767H150.156L156.571 329.832V331.948L150.156 335.032H160.02V338.165H143.1V335.08L152.251 330.89L143.1 326.72V323.635H160.02V326.767Z" fill="#231F20"/>
<path d="M160.02 319.901H143.1V309.336H146.045V316.769H150.012V310.442H152.957V316.769H157.068V309.336H160.013V319.901H160.02Z" fill="#231F20"/>
<path d="M160.02 296.792L149.638 303.146H160.02V306.279H143.1V303.487L153.461 297.133H143.1V294.001H160.02V296.792Z" fill="#231F20"/>
<path d="M146.045 284.138H160.02V287.271H146.045V291.462H143.1V279.948H146.045V284.138Z" fill="#231F20"/>
<path d="M276.401 377.859L273.406 378.808V384.507L276.401 385.476V388.745L259.481 382.91V380.453L276.401 374.597V377.859ZM264.471 381.599L270.627 383.626V379.641L264.471 381.599Z" fill="#231F20"/>
<path d="M276.538 368.202C276.538 370.632 275.99 372.481 274.306 374.058L272.167 372.031C273.24 371.014 273.593 369.642 273.593 368.154C273.593 366.305 272.858 365.315 271.505 365.315C270.907 365.315 270.41 365.472 270.079 365.813C269.77 366.127 269.604 366.489 269.482 367.233L269.194 369.171C268.978 370.543 268.531 371.56 267.79 372.276C266.983 373.041 265.889 373.423 264.463 373.423C261.446 373.423 259.33 371.307 259.33 367.833C259.33 365.629 259.898 364.025 261.302 362.653L263.369 364.632C262.346 365.649 262.202 366.864 262.202 367.922C262.202 369.587 263.174 370.4 264.341 370.4C264.766 370.4 265.219 370.263 265.55 369.929C265.86 369.615 266.119 369.096 266.213 368.441L266.501 366.55C266.717 365.09 267.142 364.162 267.811 363.486C268.668 362.633 269.899 362.244 271.397 362.244C274.687 362.251 276.538 364.844 276.538 368.202Z" fill="#231F20"/>
<path d="M276.538 354.886C276.538 357.316 275.99 359.166 274.306 360.742L272.167 358.715C273.24 357.698 273.593 356.326 273.593 354.839C273.593 352.989 272.858 351.999 271.505 351.999C270.907 351.999 270.41 352.156 270.079 352.498C269.77 352.812 269.604 353.173 269.482 353.917L269.194 355.855C268.978 357.227 268.531 358.244 267.79 358.961C266.983 359.725 265.889 360.107 264.463 360.107C261.446 360.107 259.33 357.992 259.33 354.518C259.33 352.313 259.898 350.709 261.302 349.338L263.369 351.317C262.346 352.334 262.202 353.549 262.202 354.607C262.202 356.272 263.174 357.084 264.341 357.084C264.766 357.084 265.219 356.947 265.55 356.613C265.86 356.299 266.119 355.78 266.213 355.125L266.501 353.235C266.717 351.774 267.142 350.846 267.811 350.17C268.668 349.317 269.899 348.928 271.397 348.928C274.687 348.942 276.538 351.535 276.538 354.886Z" fill="#231F20"/>
<path d="M276.401 345.993H259.481V335.428H262.426V342.861H266.393V336.534H269.338V342.861H273.449V335.428H276.394V345.993H276.401Z" fill="#231F20"/>
<path d="M262.426 326.242H276.401V329.375H262.426V333.565H259.481V322.051H262.426V326.242Z" fill="#231F20"/>
<path d="M276.538 315.097C276.538 317.526 275.99 319.376 274.306 320.952L272.167 318.925C273.24 317.909 273.593 316.537 273.593 315.049C273.593 313.199 272.858 312.21 271.505 312.21C270.907 312.21 270.41 312.367 270.079 312.708C269.77 313.022 269.604 313.384 269.482 314.127L269.194 316.066C268.978 317.438 268.531 318.455 267.79 319.171C266.983 319.936 265.889 320.318 264.463 320.318C261.446 320.318 259.33 318.202 259.33 314.728C259.33 312.524 259.898 310.92 261.302 309.548L263.369 311.527C262.346 312.544 262.202 313.759 262.202 314.817C262.202 316.482 263.174 317.294 264.341 317.294C264.766 317.294 265.219 317.158 265.55 316.823C265.86 316.509 266.119 315.991 266.213 315.335L266.501 313.445C266.717 311.984 267.142 311.056 267.811 310.381C268.668 309.527 269.899 309.138 271.397 309.138C274.687 309.145 276.538 311.739 276.538 315.097Z" fill="#231F20"/>
<path d="M308.649 404.381H298.786L305.201 407.446V409.561L298.786 412.646H308.649V415.779H291.729V412.694L300.881 408.504L291.729 404.333V401.249H308.649V404.381Z" fill="#231F20"/>
<path d="M308.649 388.39L305.654 389.339V395.038L308.649 396.007V399.276L291.729 393.441V390.984L308.649 385.128V388.39ZM296.726 392.13L302.882 394.157V390.172L296.726 392.13Z" fill="#231F20"/>
<path d="M308.649 373.662L298.267 380.016H308.649V383.149H291.729V380.357L302.09 374.003H291.729V370.871H308.649V373.662Z" fill="#231F20"/>
<path d="M308.649 358.005L305.654 358.954V364.653L308.649 365.622V368.891L291.729 363.056V360.599L308.649 354.743V358.005ZM296.726 361.745L302.882 363.773V359.787L296.726 361.745Z" fill="#231F20"/>
<path d="M306.871 342.874C308.275 344.157 308.794 345.693 308.794 347.399C308.794 349.153 308.131 350.6 306.943 351.726C305.23 353.351 303.12 353.303 300.197 353.303C297.274 353.303 295.157 353.351 293.451 351.726C292.263 350.6 291.6 349.201 291.6 347.399C291.6 343.68 294.163 341.789 297.022 341.366V344.519C295.43 344.881 294.552 345.802 294.552 347.399C294.552 348.252 294.912 348.955 295.452 349.406C296.165 350.013 296.95 350.17 300.204 350.17C303.459 350.17 304.265 350.013 304.978 349.406C305.525 348.955 305.856 348.259 305.856 347.399C305.856 346.451 305.496 345.686 304.906 345.168C304.287 344.649 303.531 344.444 302.652 344.444H302.011V347.393H299.254V341.332H301.723C304.164 341.339 305.633 341.748 306.871 342.874Z" fill="#231F20"/>
<path d="M308.649 326.767H298.786L305.201 329.832V331.948L298.786 335.032H308.649V338.165H291.729V335.08L300.881 330.89L291.729 326.72V323.635H308.649V326.767Z" fill="#231F20"/>
<path d="M308.649 319.901H291.729V309.336H294.674V316.769H298.641V310.442H301.586V316.769H305.697V309.336H308.642V319.901H308.649Z" fill="#231F20"/>
<path d="M308.649 296.792L298.267 303.146H308.649V306.279H291.729V303.487L302.09 297.133H291.729V294.001H308.649V296.792Z" fill="#231F20"/>
<path d="M294.682 284.138H308.657V287.271H294.682V291.462H291.737V279.948H294.682V284.138Z" fill="#231F20"/>
<path d="M276.401 377.859L273.406 378.808V384.507L276.401 385.476V388.745L259.481 382.91V380.453L276.401 374.597V377.859ZM264.471 381.599L270.627 383.626V379.641L264.471 381.599Z" fill="#606060"/>
<path d="M276.538 368.202C276.538 370.632 275.99 372.481 274.306 374.058L272.167 372.031C273.24 371.014 273.593 369.642 273.593 368.154C273.593 366.305 272.858 365.315 271.505 365.315C270.907 365.315 270.41 365.472 270.079 365.813C269.77 366.127 269.604 366.489 269.482 367.233L269.194 369.171C268.978 370.543 268.531 371.56 267.79 372.276C266.983 373.041 265.889 373.423 264.463 373.423C261.446 373.423 259.33 371.307 259.33 367.833C259.33 365.629 259.898 364.025 261.302 362.653L263.369 364.632C262.346 365.649 262.202 366.864 262.202 367.922C262.202 369.587 263.174 370.4 264.341 370.4C264.766 370.4 265.219 370.263 265.55 369.929C265.86 369.615 266.119 369.096 266.213 368.441L266.501 366.55C266.717 365.09 267.142 364.162 267.811 363.486C268.668 362.633 269.899 362.244 271.397 362.244C274.687 362.251 276.538 364.844 276.538 368.202Z" fill="#606060"/>
<path d="M276.538 354.886C276.538 357.316 275.99 359.166 274.306 360.742L272.167 358.715C273.24 357.698 273.593 356.326 273.593 354.839C273.593 352.989 272.858 351.999 271.505 351.999C270.907 351.999 270.41 352.156 270.079 352.498C269.77 352.812 269.604 353.173 269.482 353.917L269.194 355.855C268.978 357.227 268.531 358.244 267.79 358.961C266.983 359.725 265.889 360.107 264.463 360.107C261.446 360.107 259.33 357.992 259.33 354.518C259.33 352.313 259.898 350.709 261.302 349.338L263.369 351.317C262.346 352.334 262.202 353.549 262.202 354.607C262.202 356.272 263.174 357.084 264.341 357.084C264.766 357.084 265.219 356.947 265.55 356.613C265.86 356.299 266.119 355.78 266.213 355.125L266.501 353.235C266.717 351.774 267.142 350.846 267.811 350.17C268.668 349.317 269.899 348.928 271.397 348.928C274.687 348.942 276.538 351.535 276.538 354.886Z" fill="#606060"/>
<path d="M276.401 345.993H259.481V335.428H262.426V342.861H266.393V336.534H269.338V342.861H273.449V335.428H276.394V345.993H276.401Z" fill="#606060"/>
<path d="M262.426 326.242H276.401V329.375H262.426V333.565H259.481V322.051H262.426V326.242Z" fill="#606060"/>
<path d="M276.538 315.097C276.538 317.526 275.99 319.376 274.306 320.952L272.167 318.925C273.24 317.909 273.593 316.537 273.593 315.049C273.593 313.199 272.858 312.21 271.505 312.21C270.907 312.21 270.41 312.367 270.079 312.708C269.77 313.022 269.604 313.384 269.482 314.127L269.194 316.066C268.978 317.438 268.531 318.455 267.79 319.171C266.983 319.936 265.889 320.318 264.463 320.318C261.446 320.318 259.33 318.202 259.33 314.728C259.33 312.524 259.898 310.92 261.302 309.548L263.369 311.527C262.346 312.544 262.202 313.759 262.202 314.817C262.202 316.482 263.174 317.294 264.341 317.294C264.766 317.294 265.219 317.158 265.55 316.823C265.86 316.509 266.119 315.991 266.213 315.335L266.501 313.445C266.717 311.984 267.142 311.056 267.811 310.381C268.668 309.527 269.899 309.138 271.397 309.138C274.687 309.145 276.538 311.739 276.538 315.097Z" fill="#606060"/>
<path d="M308.649 404.381H298.786L305.201 407.446V409.561L298.786 412.646H308.649V415.779H291.729V412.694L300.881 408.504L291.729 404.333V401.249H308.649V404.381Z" fill="#606060"/>
<path d="M308.649 388.39L305.654 389.339V395.038L308.649 396.007V399.276L291.729 393.441V390.984L308.649 385.128V388.39ZM296.726 392.13L302.882 394.157V390.172L296.726 392.13Z" fill="#606060"/>
<path d="M308.649 373.662L298.267 380.016H308.649V383.149H291.729V380.357L302.09 374.003H291.729V370.871H308.649V373.662Z" fill="#606060"/>
<path d="M308.649 358.005L305.654 358.954V364.653L308.649 365.622V368.891L291.729 363.056V360.599L308.649 354.743V358.005ZM296.726 361.745L302.882 363.773V359.787L296.726 361.745Z" fill="#606060"/>
<path d="M306.871 342.874C308.275 344.157 308.794 345.693 308.794 347.399C308.794 349.153 308.131 350.6 306.943 351.726C305.23 353.351 303.12 353.303 300.197 353.303C297.274 353.303 295.157 353.351 293.451 351.726C292.263 350.6 291.6 349.201 291.6 347.399C291.6 343.68 294.163 341.789 297.022 341.366V344.519C295.43 344.881 294.552 345.802 294.552 347.399C294.552 348.252 294.912 348.955 295.452 349.406C296.165 350.013 296.95 350.17 300.204 350.17C303.459 350.17 304.265 350.013 304.978 349.406C305.525 348.955 305.856 348.259 305.856 347.399C305.856 346.451 305.496 345.686 304.906 345.168C304.287 344.649 303.531 344.444 302.652 344.444H302.011V347.393H299.254V341.332H301.723C304.164 341.339 305.633 341.748 306.871 342.874Z" fill="#606060"/>
<path d="M308.649 326.767H298.786L305.201 329.832V331.948L298.786 335.032H308.649V338.165H291.729V335.08L300.881 330.89L291.729 326.72V323.635H308.649V326.767Z" fill="#606060"/>
<path d="M308.649 319.901H291.729V309.336H294.674V316.769H298.641V310.442H301.586V316.769H305.697V309.336H308.642V319.901H308.649Z" fill="#606060"/>
<path d="M308.649 296.792L298.267 303.146H308.649V306.279H291.729V303.487L302.09 297.133H291.729V294.001H308.649V296.792Z" fill="#606060"/>
<path d="M294.682 284.138H308.657V287.271H294.682V291.462H291.737V279.948H294.682V284.138Z" fill="#606060"/>
<path d="M276.401 377.859L273.406 378.808V384.507L276.401 385.476V388.745L259.481 382.91V380.453L276.401 374.597V377.859ZM264.471 381.599L270.627 383.626V379.641L264.471 381.599Z" fill="#231F20"/>
<path d="M276.538 368.202C276.538 370.632 275.99 372.481 274.306 374.058L272.167 372.031C273.24 371.014 273.593 369.642 273.593 368.154C273.593 366.305 272.858 365.315 271.505 365.315C270.907 365.315 270.41 365.472 270.079 365.813C269.77 366.127 269.604 366.489 269.482 367.233L269.194 369.171C268.978 370.543 268.531 371.56 267.79 372.276C266.983 373.041 265.889 373.423 264.463 373.423C261.446 373.423 259.33 371.307 259.33 367.833C259.33 365.629 259.898 364.025 261.302 362.653L263.369 364.632C262.346 365.649 262.202 366.864 262.202 367.922C262.202 369.587 263.174 370.4 264.341 370.4C264.766 370.4 265.219 370.263 265.55 369.929C265.86 369.615 266.119 369.096 266.213 368.441L266.501 366.55C266.717 365.09 267.142 364.162 267.811 363.486C268.668 362.633 269.899 362.244 271.397 362.244C274.687 362.251 276.538 364.844 276.538 368.202Z" fill="#231F20"/>
<path d="M276.538 354.886C276.538 357.316 275.99 359.166 274.306 360.742L272.167 358.715C273.24 357.698 273.593 356.326 273.593 354.839C273.593 352.989 272.858 351.999 271.505 351.999C270.907 351.999 270.41 352.156 270.079 352.498C269.77 352.812 269.604 353.173 269.482 353.917L269.194 355.855C268.978 357.227 268.531 358.244 267.79 358.961C266.983 359.725 265.889 360.107 264.463 360.107C261.446 360.107 259.33 357.992 259.33 354.518C259.33 352.313 259.898 350.709 261.302 349.338L263.369 351.317C262.346 352.334 262.202 353.549 262.202 354.607C262.202 356.272 263.174 357.084 264.341 357.084C264.766 357.084 265.219 356.947 265.55 356.613C265.86 356.299 266.119 355.78 266.213 355.125L266.501 353.235C266.717 351.774 267.142 350.846 267.811 350.17C268.668 349.317 269.899 348.928 271.397 348.928C274.687 348.942 276.538 351.535 276.538 354.886Z" fill="#231F20"/>
<path d="M276.401 345.993H259.481V335.428H262.426V342.861H266.393V336.534H269.338V342.861H273.449V335.428H276.394V345.993H276.401Z" fill="#231F20"/>
<path d="M262.426 326.242H276.401V329.375H262.426V333.565H259.481V322.051H262.426V326.242Z" fill="#231F20"/>
<path d="M276.538 315.097C276.538 317.526 275.99 319.376 274.306 320.952L272.167 318.925C273.24 317.909 273.593 316.537 273.593 315.049C273.593 313.199 272.858 312.21 271.505 312.21C270.907 312.21 270.41 312.367 270.079 312.708C269.77 313.022 269.604 313.384 269.482 314.127L269.194 316.066C268.978 317.438 268.531 318.455 267.79 319.171C266.983 319.936 265.889 320.318 264.463 320.318C261.446 320.318 259.33 318.202 259.33 314.728C259.33 312.524 259.898 310.92 261.302 309.548L263.369 311.527C262.346 312.544 262.202 313.759 262.202 314.817C262.202 316.482 263.174 317.294 264.341 317.294C264.766 317.294 265.219 317.158 265.55 316.823C265.86 316.509 266.119 315.991 266.213 315.335L266.501 313.445C266.717 311.984 267.142 311.056 267.811 310.381C268.668 309.527 269.899 309.138 271.397 309.138C274.687 309.145 276.538 311.739 276.538 315.097Z" fill="#231F20"/>
<path d="M308.649 404.381H298.786L305.201 407.446V409.561L298.786 412.646H308.649V415.779H291.729V412.694L300.881 408.504L291.729 404.333V401.249H308.649V404.381Z" fill="#231F20"/>
<path d="M308.649 388.39L305.654 389.339V395.038L308.649 396.007V399.276L291.729 393.441V390.984L308.649 385.128V388.39ZM296.726 392.13L302.882 394.157V390.172L296.726 392.13Z" fill="#231F20"/>
<path d="M308.649 373.662L298.267 380.016H308.649V383.149H291.729V380.357L302.09 374.003H291.729V370.871H308.649V373.662Z" fill="#231F20"/>
<path d="M308.649 358.005L305.654 358.954V364.653L308.649 365.622V368.891L291.729 363.056V360.599L308.649 354.743V358.005ZM296.726 361.745L302.882 363.773V359.787L296.726 361.745Z" fill="#231F20"/>
<path d="M306.871 342.874C308.275 344.157 308.794 345.693 308.794 347.399C308.794 349.153 308.131 350.6 306.943 351.726C305.23 353.351 303.12 353.303 300.197 353.303C297.274 353.303 295.157 353.351 293.451 351.726C292.263 350.6 291.6 349.201 291.6 347.399C291.6 343.68 294.163 341.789 297.022 341.366V344.519C295.43 344.881 294.552 345.802 294.552 347.399C294.552 348.252 294.912 348.955 295.452 349.406C296.165 350.013 296.95 350.17 300.204 350.17C303.459 350.17 304.265 350.013 304.978 349.406C305.525 348.955 305.856 348.259 305.856 347.399C305.856 346.451 305.496 345.686 304.906 345.168C304.287 344.649 303.531 344.444 302.652 344.444H302.011V347.393H299.254V341.332H301.723C304.164 341.339 305.633 341.748 306.871 342.874Z" fill="#231F20"/>
<path d="M308.649 326.767H298.786L305.201 329.832V331.948L298.786 335.032H308.649V338.165H291.729V335.08L300.881 330.89L291.729 326.72V323.635H308.649V326.767Z" fill="#231F20"/>
<path d="M308.649 319.901H291.729V309.336H294.674V316.769H298.641V310.442H301.586V316.769H305.697V309.336H308.642V319.901H308.649Z" fill="#231F20"/>
<path d="M308.649 296.792L298.267 303.146H308.649V306.279H291.729V303.487L302.09 297.133H291.729V294.001H308.649V296.792Z" fill="#231F20"/>
<path d="M294.682 284.138H308.657V287.271H294.682V291.462H291.737V279.948H294.682V284.138Z" fill="#231F20"/>
<path d="M427.493 390.943H413.77V388.404H425.102V382.507H427.493V390.943Z" fill="#231F20"/>
<path d="M427.608 375.853C427.608 378.521 425.7 380.637 422.791 380.637H413.77V378.105H422.69C424.267 378.105 425.218 377.231 425.218 375.86C425.218 374.488 424.274 373.594 422.69 373.594H413.77V371.075H422.791C425.7 371.068 427.608 373.191 427.608 375.853Z" fill="#231F20"/>
<path d="M427.493 361.739L422.712 364.257L427.493 366.762V369.669L420.458 365.629L413.77 369.41V366.523L418.205 364.257L413.77 361.971V359.104L420.458 362.885L427.493 358.831V361.739Z" fill="#231F20"/>
<path d="M427.608 352.641C427.608 355.31 425.7 357.425 422.791 357.425H413.77V354.886H422.69C424.267 354.886 425.218 354.013 425.218 352.641C425.218 351.269 424.274 350.375 422.69 350.375H413.77V347.857H422.791C425.7 347.857 427.608 349.979 427.608 352.641Z" fill="#231F20"/>
<path d="M427.493 338.124L422.021 340.663V342.492H427.493V345.031H413.77V339.933C413.77 337.285 415.678 335.715 417.967 335.715C419.897 335.715 421.092 336.827 421.567 338.09L427.486 335.183V338.124H427.493ZM416.16 340.097V342.492H419.782V340.097C419.782 338.984 419.033 338.254 417.967 338.254C416.909 338.254 416.16 338.984 416.16 340.097Z" fill="#231F20"/>
<path d="M421.862 328.119H427.493V330.637H421.862L413.77 334.548V331.791L419.299 329.361L413.77 326.965V324.208L421.862 328.119Z" fill="#231F20"/>
<path d="M453.643 464.093H439.92V461.554H453.643V464.093Z" fill="#231F20"/>
<path d="M453.643 450.832L445.219 455.985H453.643V458.524H439.92V456.258L448.322 451.105H439.92V448.566H453.643V450.832Z" fill="#231F20"/>
<path d="M442.318 440.567H453.65V443.106H442.318V446.505H439.927V437.169H442.318V440.567Z" fill="#231F20"/>
<path d="M453.643 435.107H439.92V426.542H442.31V432.569H445.529V427.436H447.919V432.569H451.253V426.542H453.643V435.107Z" fill="#231F20"/>
<path d="M453.643 417.158L448.171 419.697V421.526H453.643V424.065H439.92V418.966C439.92 416.318 441.828 414.748 444.118 414.748C446.047 414.748 447.242 415.861 447.718 417.123L453.636 414.216V417.158H453.643ZM442.318 419.13V421.526H445.939V419.13C445.939 418.018 445.19 417.287 444.125 417.287C443.066 417.287 442.318 418.018 442.318 419.13Z" fill="#231F20"/>
<path d="M453.643 404.429L445.219 409.582H453.643V412.121H439.92V409.855L448.322 404.702H439.92V402.163H453.643V404.429Z" fill="#231F20"/>
<path d="M453.643 391.735L451.217 392.499V397.119L453.643 397.904V400.552L439.92 395.823V393.83L453.643 389.08V391.735ZM443.974 394.765L448.963 396.41V393.175L443.974 394.765Z" fill="#231F20"/>
<path d="M442.318 382.514H453.65V385.053H442.318V388.452H439.927V379.115H442.318V382.514Z" fill="#231F20"/>
<path d="M453.643 377.054H439.92V374.515H453.643V377.054Z" fill="#231F20"/>
<path d="M452.261 363.609C453.226 364.523 453.766 365.636 453.766 367.117C453.766 368.598 453.226 369.731 452.261 370.645C450.871 371.963 449.158 371.922 446.789 371.922C444.42 371.922 442.706 371.956 441.317 370.645C440.352 369.731 439.812 368.598 439.812 367.117C439.812 365.636 440.352 364.523 441.317 363.609C442.706 362.292 444.42 362.312 446.789 362.312C449.158 362.312 450.871 362.292 452.261 363.609ZM442.93 365.492C442.483 365.861 442.195 366.427 442.195 367.117C442.195 367.813 442.483 368.393 442.93 368.762C443.506 369.253 444.146 369.383 446.782 369.383C449.424 369.383 450.058 369.253 450.634 368.762C451.08 368.393 451.368 367.813 451.368 367.117C451.368 366.421 451.08 365.854 450.634 365.492C450.058 365.001 449.417 364.851 446.782 364.851C444.146 364.851 443.513 365.001 442.93 365.492Z" fill="#231F20"/>
<path d="M453.643 352.033L445.219 357.186H453.643V359.725H439.92V357.459L448.322 352.307H439.92V349.768H453.643V352.033Z" fill="#231F20"/>
<path d="M453.643 339.339L451.217 340.103V344.724L453.643 345.509V348.157L439.92 343.427V341.434L453.643 336.684V339.339ZM443.974 342.369L448.963 344.014V340.779L443.974 342.369Z" fill="#231F20"/>
<path d="M453.643 335.087H439.92V332.548H451.253V326.651H453.643V335.087Z" fill="#231F20"/>
<path d="M453.643 314.905V320.352H439.92V315.131C439.92 312.592 441.425 311.111 443.772 311.111C445.291 311.111 446.278 312.059 446.602 312.715C446.99 311.93 447.854 310.927 449.683 310.927C452.261 310.92 453.643 312.585 453.643 314.905ZM442.318 315.322V317.806H445.478V315.322C445.478 314.243 444.845 313.643 443.894 313.643C442.951 313.643 442.318 314.243 442.318 315.322ZM447.883 315.158V317.806H451.253V315.158C451.253 314.005 450.482 313.459 449.554 313.459C448.632 313.459 447.883 314.005 447.883 315.158Z" fill="#231F20"/>
<path d="M453.643 301.426L448.171 303.965V305.794H453.643V308.333H439.92V303.235C439.92 300.587 441.828 299.017 444.118 299.017C446.047 299.017 447.242 300.129 447.718 301.392L453.636 298.485V301.426H453.643ZM442.318 303.399V305.794H445.939V303.399C445.939 302.286 445.19 301.556 444.125 301.556C443.066 301.549 442.318 302.286 442.318 303.399Z" fill="#231F20"/>
<path d="M452.261 288.513C453.226 289.428 453.766 290.54 453.766 292.021C453.766 293.502 453.226 294.635 452.261 295.55C450.871 296.867 449.158 296.826 446.789 296.826C444.42 296.826 442.706 296.86 441.317 295.55C440.352 294.635 439.812 293.502 439.812 292.021C439.812 290.54 440.352 289.428 441.317 288.513C442.706 287.196 444.42 287.216 446.789 287.216C449.158 287.216 450.871 287.196 452.261 288.513ZM442.93 290.397C442.483 290.765 442.195 291.332 442.195 292.021C442.195 292.717 442.483 293.298 442.93 293.666C443.506 294.157 444.146 294.287 446.782 294.287C449.424 294.287 450.058 294.157 450.634 293.666C451.08 293.298 451.368 292.717 451.368 292.021C451.368 291.325 451.08 290.759 450.634 290.397C450.058 289.906 449.417 289.755 446.782 289.755C444.146 289.755 443.513 289.899 442.93 290.397Z" fill="#231F20"/>
<path d="M453.643 277.061L447.401 280.405L449.518 282.084H453.643V284.623H439.92V282.084H445.896L439.92 277.498V274.413L445.37 278.726L453.636 274.106V277.061H453.643Z" fill="#231F20"/>
<path d="M453.643 272.481H439.92V263.916H442.31V269.942H445.529V264.81H447.919V269.942H451.253V263.916H453.643V272.481Z" fill="#231F20"/>
<path d="M453.643 254.525L448.171 257.064V258.893H453.643V261.432H439.92V256.333C439.92 253.685 441.828 252.115 444.118 252.115C446.047 252.115 447.242 253.228 447.718 254.491L453.636 251.583V254.525H453.643ZM442.318 256.497V258.893H445.939V256.497C445.939 255.385 445.19 254.654 444.125 254.654C443.066 254.654 442.318 255.385 442.318 256.497Z" fill="#231F20"/>
<path d="M427.493 390.943H413.77V388.404H425.102V382.507H427.493V390.943Z" fill="#606060"/>
<path d="M427.608 375.853C427.608 378.521 425.7 380.637 422.791 380.637H413.77V378.105H422.69C424.267 378.105 425.218 377.231 425.218 375.86C425.218 374.488 424.274 373.594 422.69 373.594H413.77V371.075H422.791C425.7 371.068 427.608 373.191 427.608 375.853Z" fill="#606060"/>
<path d="M427.493 361.739L422.712 364.257L427.493 366.762V369.669L420.458 365.629L413.77 369.41V366.523L418.205 364.257L413.77 361.971V359.104L420.458 362.885L427.493 358.831V361.739Z" fill="#606060"/>
<path d="M427.608 352.641C427.608 355.31 425.7 357.425 422.791 357.425H413.77V354.886H422.69C424.267 354.886 425.218 354.013 425.218 352.641C425.218 351.269 424.274 350.375 422.69 350.375H413.77V347.857H422.791C425.7 347.857 427.608 349.979 427.608 352.641Z" fill="#606060"/>
<path d="M427.493 338.124L422.021 340.663V342.492H427.493V345.031H413.77V339.933C413.77 337.285 415.678 335.715 417.967 335.715C419.897 335.715 421.092 336.827 421.567 338.09L427.486 335.183V338.124H427.493ZM416.16 340.097V342.492H419.782V340.097C419.782 338.984 419.033 338.254 417.967 338.254C416.909 338.254 416.16 338.984 416.16 340.097Z" fill="#606060"/>
<path d="M421.862 328.119H427.493V330.637H421.862L413.77 334.548V331.791L419.299 329.361L413.77 326.965V324.208L421.862 328.119Z" fill="#606060"/>
<path d="M453.643 464.093H439.92V461.554H453.643V464.093Z" fill="#606060"/>
<path d="M453.643 450.832L445.219 455.985H453.643V458.524H439.92V456.258L448.322 451.105H439.92V448.566H453.643V450.832Z" fill="#606060"/>
<path d="M442.318 440.567H453.65V443.106H442.318V446.505H439.927V437.169H442.318V440.567Z" fill="#606060"/>
<path d="M453.643 435.107H439.92V426.542H442.31V432.569H445.529V427.436H447.919V432.569H451.253V426.542H453.643V435.107Z" fill="#606060"/>
<path d="M453.643 417.158L448.171 419.697V421.526H453.643V424.065H439.92V418.966C439.92 416.318 441.828 414.748 444.118 414.748C446.047 414.748 447.242 415.861 447.718 417.123L453.636 414.216V417.158H453.643ZM442.318 419.13V421.526H445.939V419.13C445.939 418.018 445.19 417.287 444.125 417.287C443.066 417.287 442.318 418.018 442.318 419.13Z" fill="#606060"/>
<path d="M453.643 404.429L445.219 409.582H453.643V412.121H439.92V409.855L448.322 404.702H439.92V402.163H453.643V404.429Z" fill="#606060"/>
<path d="M453.643 391.735L451.217 392.499V397.119L453.643 397.904V400.552L439.92 395.823V393.83L453.643 389.08V391.735ZM443.974 394.765L448.963 396.41V393.175L443.974 394.765Z" fill="#606060"/>
<path d="M442.318 382.514H453.65V385.053H442.318V388.452H439.927V379.115H442.318V382.514Z" fill="#606060"/>
<path d="M453.643 377.054H439.92V374.515H453.643V377.054Z" fill="#606060"/>
<path d="M452.261 363.609C453.226 364.523 453.766 365.636 453.766 367.117C453.766 368.598 453.226 369.731 452.261 370.645C450.871 371.963 449.158 371.922 446.789 371.922C444.42 371.922 442.706 371.956 441.317 370.645C440.352 369.731 439.812 368.598 439.812 367.117C439.812 365.636 440.352 364.523 441.317 363.609C442.706 362.292 444.42 362.312 446.789 362.312C449.158 362.312 450.871 362.292 452.261 363.609ZM442.93 365.492C442.483 365.861 442.195 366.427 442.195 367.117C442.195 367.813 442.483 368.393 442.93 368.762C443.506 369.253 444.146 369.383 446.782 369.383C449.424 369.383 450.058 369.253 450.634 368.762C451.08 368.393 451.368 367.813 451.368 367.117C451.368 366.421 451.08 365.854 450.634 365.492C450.058 365.001 449.417 364.851 446.782 364.851C444.146 364.851 443.513 365.001 442.93 365.492Z" fill="#606060"/>
<path d="M453.643 352.033L445.219 357.186H453.643V359.725H439.92V357.459L448.322 352.307H439.92V349.768H453.643V352.033Z" fill="#606060"/>
<path d="M453.643 339.339L451.217 340.103V344.724L453.643 345.509V348.157L439.92 343.427V341.434L453.643 336.684V339.339ZM443.974 342.369L448.963 344.014V340.779L443.974 342.369Z" fill="#606060"/>
<path d="M453.643 335.087H439.92V332.548H451.253V326.651H453.643V335.087Z" fill="#606060"/>
<path d="M453.643 314.905V320.352H439.92V315.131C439.92 312.592 441.425 311.111 443.772 311.111C445.291 311.111 446.278 312.059 446.602 312.715C446.99 311.93 447.854 310.927 449.683 310.927C452.261 310.92 453.643 312.585 453.643 314.905ZM442.318 315.322V317.806H445.478V315.322C445.478 314.243 444.845 313.643 443.894 313.643C442.951 313.643 442.318 314.243 442.318 315.322ZM447.883 315.158V317.806H451.253V315.158C451.253 314.005 450.482 313.459 449.554 313.459C448.632 313.459 447.883 314.005 447.883 315.158Z" fill="#606060"/>
<path d="M453.643 301.426L448.171 303.965V305.794H453.643V308.333H439.92V303.235C439.92 300.587 441.828 299.017 444.118 299.017C446.047 299.017 447.242 300.129 447.718 301.392L453.636 298.485V301.426H453.643ZM442.318 303.399V305.794H445.939V303.399C445.939 302.286 445.19 301.556 444.125 301.556C443.066 301.549 442.318 302.286 442.318 303.399Z" fill="#606060"/>
<path d="M452.261 288.513C453.226 289.428 453.766 290.54 453.766 292.021C453.766 293.502 453.226 294.635 452.261 295.55C450.871 296.867 449.158 296.826 446.789 296.826C444.42 296.826 442.706 296.86 441.317 295.55C440.352 294.635 439.812 293.502 439.812 292.021C439.812 290.54 440.352 289.428 441.317 288.513C442.706 287.196 444.42 287.216 446.789 287.216C449.158 287.216 450.871 287.196 452.261 288.513ZM442.93 290.397C442.483 290.765 442.195 291.332 442.195 292.021C442.195 292.717 442.483 293.298 442.93 293.666C443.506 294.157 444.146 294.287 446.782 294.287C449.424 294.287 450.058 294.157 450.634 293.666C451.08 293.298 451.368 292.717 451.368 292.021C451.368 291.325 451.08 290.759 450.634 290.397C450.058 289.906 449.417 289.755 446.782 289.755C444.146 289.755 443.513 289.899 442.93 290.397Z" fill="#606060"/>
<path d="M453.643 277.061L447.401 280.405L449.518 282.084H453.643V284.623H439.92V282.084H445.896L439.92 277.498V274.413L445.37 278.726L453.636 274.106V277.061H453.643Z" fill="#606060"/>
<path d="M453.643 272.481H439.92V263.916H442.31V269.942H445.529V264.81H447.919V269.942H451.253V263.916H453.643V272.481Z" fill="#606060"/>
<path d="M453.643 254.525L448.171 257.064V258.893H453.643V261.432H439.92V256.333C439.92 253.685 441.828 252.115 444.118 252.115C446.047 252.115 447.242 253.228 447.718 254.491L453.636 251.583V254.525H453.643ZM442.318 256.497V258.893H445.939V256.497C445.939 255.385 445.19 254.654 444.125 254.654C443.066 254.654 442.318 255.385 442.318 256.497Z" fill="#606060"/>
<path d="M427.493 390.943H413.77V388.404H425.102V382.507H427.493V390.943Z" fill="#231F20"/>
<path d="M427.608 375.853C427.608 378.521 425.7 380.637 422.791 380.637H413.77V378.105H422.69C424.267 378.105 425.218 377.231 425.218 375.86C425.218 374.488 424.274 373.594 422.69 373.594H413.77V371.075H422.791C425.7 371.068 427.608 373.191 427.608 375.853Z" fill="#231F20"/>
<path d="M427.493 361.739L422.712 364.257L427.493 366.762V369.669L420.458 365.629L413.77 369.41V366.523L418.205 364.257L413.77 361.971V359.104L420.458 362.885L427.493 358.831V361.739Z" fill="#231F20"/>
<path d="M427.608 352.641C427.608 355.31 425.7 357.425 422.791 357.425H413.77V354.886H422.69C424.267 354.886 425.218 354.013 425.218 352.641C425.218 351.269 424.274 350.375 422.69 350.375H413.77V347.857H422.791C425.7 347.857 427.608 349.979 427.608 352.641Z" fill="#231F20"/>
<path d="M427.493 338.124L422.021 340.663V342.492H427.493V345.031H413.77V339.933C413.77 337.285 415.678 335.715 417.967 335.715C419.897 335.715 421.092 336.827 421.567 338.09L427.486 335.183V338.124H427.493ZM416.16 340.097V342.492H419.782V340.097C419.782 338.984 419.033 338.254 417.967 338.254C416.909 338.254 416.16 338.984 416.16 340.097Z" fill="#231F20"/>
<path d="M421.862 328.119H427.493V330.637H421.862L413.77 334.548V331.791L419.299 329.361L413.77 326.965V324.208L421.862 328.119Z" fill="#231F20"/>
<path d="M453.643 464.093H439.92V461.554H453.643V464.093Z" fill="#231F20"/>
<path d="M453.643 450.832L445.219 455.985H453.643V458.524H439.92V456.258L448.322 451.105H439.92V448.566H453.643V450.832Z" fill="#231F20"/>
<path d="M442.318 440.567H453.65V443.106H442.318V446.505H439.927V437.169H442.318V440.567Z" fill="#231F20"/>
<path d="M453.643 435.107H439.92V426.542H442.31V432.569H445.529V427.436H447.919V432.569H451.253V426.542H453.643V435.107Z" fill="#231F20"/>
<path d="M453.643 417.158L448.171 419.697V421.526H453.643V424.065H439.92V418.966C439.92 416.318 441.828 414.748 444.118 414.748C446.047 414.748 447.242 415.861 447.718 417.123L453.636 414.216V417.158H453.643ZM442.318 419.13V421.526H445.939V419.13C445.939 418.018 445.19 417.287 444.125 417.287C443.066 417.287 442.318 418.018 442.318 419.13Z" fill="#231F20"/>
<path d="M453.643 404.429L445.219 409.582H453.643V412.121H439.92V409.855L448.322 404.702H439.92V402.163H453.643V404.429Z" fill="#231F20"/>
<path d="M453.643 391.735L451.217 392.499V397.119L453.643 397.904V400.552L439.92 395.823V393.83L453.643 389.08V391.735ZM443.974 394.765L448.963 396.41V393.175L443.974 394.765Z" fill="#231F20"/>
<path d="M442.318 382.514H453.65V385.053H442.318V388.452H439.927V379.115H442.318V382.514Z" fill="#231F20"/>
<path d="M453.643 377.054H439.92V374.515H453.643V377.054Z" fill="#231F20"/>
<path d="M452.261 363.609C453.226 364.523 453.766 365.636 453.766 367.117C453.766 368.598 453.226 369.731 452.261 370.645C450.871 371.963 449.158 371.922 446.789 371.922C444.42 371.922 442.706 371.956 441.317 370.645C440.352 369.731 439.812 368.598 439.812 367.117C439.812 365.636 440.352 364.523 441.317 363.609C442.706 362.292 444.42 362.312 446.789 362.312C449.158 362.312 450.871 362.292 452.261 363.609ZM442.93 365.492C442.483 365.861 442.195 366.427 442.195 367.117C442.195 367.813 442.483 368.393 442.93 368.762C443.506 369.253 444.146 369.383 446.782 369.383C449.424 369.383 450.058 369.253 450.634 368.762C451.08 368.393 451.368 367.813 451.368 367.117C451.368 366.421 451.08 365.854 450.634 365.492C450.058 365.001 449.417 364.851 446.782 364.851C444.146 364.851 443.513 365.001 442.93 365.492Z" fill="#231F20"/>
<path d="M453.643 352.033L445.219 357.186H453.643V359.725H439.92V357.459L448.322 352.307H439.92V349.768H453.643V352.033Z" fill="#231F20"/>
<path d="M453.643 339.339L451.217 340.103V344.724L453.643 345.509V348.157L439.92 343.427V341.434L453.643 336.684V339.339ZM443.974 342.369L448.963 344.014V340.779L443.974 342.369Z" fill="#231F20"/>
<path d="M453.643 335.087H439.92V332.548H451.253V326.651H453.643V335.087Z" fill="#231F20"/>
<path d="M453.643 314.905V320.352H439.92V315.131C439.92 312.592 441.425 311.111 443.772 311.111C445.291 311.111 446.278 312.059 446.602 312.715C446.99 311.93 447.854 310.927 449.683 310.927C452.261 310.92 453.643 312.585 453.643 314.905ZM442.318 315.322V317.806H445.478V315.322C445.478 314.243 444.845 313.643 443.894 313.643C442.951 313.643 442.318 314.243 442.318 315.322ZM447.883 315.158V317.806H451.253V315.158C451.253 314.005 450.482 313.459 449.554 313.459C448.632 313.459 447.883 314.005 447.883 315.158Z" fill="#231F20"/>
<path d="M453.643 301.426L448.171 303.965V305.794H453.643V308.333H439.92V303.235C439.92 300.587 441.828 299.017 444.118 299.017C446.047 299.017 447.242 300.129 447.718 301.392L453.636 298.485V301.426H453.643ZM442.318 303.399V305.794H445.939V303.399C445.939 302.286 445.19 301.556 444.125 301.556C443.066 301.549 442.318 302.286 442.318 303.399Z" fill="#231F20"/>
<path d="M452.261 288.513C453.226 289.428 453.766 290.54 453.766 292.021C453.766 293.502 453.226 294.635 452.261 295.55C450.871 296.867 449.158 296.826 446.789 296.826C444.42 296.826 442.706 296.86 441.317 295.55C440.352 294.635 439.812 293.502 439.812 292.021C439.812 290.54 440.352 289.428 441.317 288.513C442.706 287.196 444.42 287.216 446.789 287.216C449.158 287.216 450.871 287.196 452.261 288.513ZM442.93 290.397C442.483 290.765 442.195 291.332 442.195 292.021C442.195 292.717 442.483 293.298 442.93 293.666C443.506 294.157 444.146 294.287 446.782 294.287C449.424 294.287 450.058 294.157 450.634 293.666C451.08 293.298 451.368 292.717 451.368 292.021C451.368 291.325 451.08 290.759 450.634 290.397C450.058 289.906 449.417 289.755 446.782 289.755C444.146 289.755 443.513 289.899 442.93 290.397Z" fill="#231F20"/>
<path d="M453.643 277.061L447.401 280.405L449.518 282.084H453.643V284.623H439.92V282.084H445.896L439.92 277.498V274.413L445.37 278.726L453.636 274.106V277.061H453.643Z" fill="#231F20"/>
<path d="M453.643 272.481H439.92V263.916H442.31V269.942H445.529V264.81H447.919V269.942H451.253V263.916H453.643V272.481Z" fill="#231F20"/>
<path d="M453.643 254.525L448.171 257.064V258.893H453.643V261.432H439.92V256.333C439.92 253.685 441.828 252.115 444.118 252.115C446.047 252.115 447.242 253.228 447.718 254.491L453.636 251.583V254.525H453.643ZM442.318 256.497V258.893H445.939V256.497C445.939 255.385 445.19 254.654 444.125 254.654C443.066 254.654 442.318 255.385 442.318 256.497Z" fill="#231F20"/>
<path d="M288.842 180.385C290.038 181.525 291.204 182.623 292.356 183.736C292.457 183.838 292.5 184.084 292.442 184.214C292.082 185.033 291.679 185.838 291.326 186.664C291.254 186.821 291.262 187.073 291.355 187.223C292.133 188.52 292.73 189.878 293.141 191.325C293.184 191.475 293.357 191.646 293.515 191.707C294.365 192.042 295.229 192.356 296.093 192.656C296.352 192.745 296.46 192.861 296.453 193.134C296.438 194.588 296.438 196.041 296.453 197.502C296.453 197.775 296.33 197.87 296.086 197.973C295.625 198.164 295.272 198.219 294.833 197.857C294.329 197.44 293.666 197.311 292.989 197.311C291.686 197.311 290.39 197.311 289.087 197.311C288.914 197.311 288.749 197.311 288.54 197.311C288.576 196.97 288.612 196.669 288.641 196.362C289.217 190.281 284.709 184.951 278.316 184.152C271.951 183.361 265.925 187.742 265.111 193.755C264.297 199.816 268.387 205.187 274.716 206.354C275.148 206.436 275.587 206.47 276.019 206.497C276.293 206.511 276.415 206.6 276.394 206.873C276.314 207.971 276.588 208.961 277.366 209.807C277.43 209.876 277.459 209.998 277.466 210.094C277.474 211.343 277.474 212.585 277.474 213.896C276.415 213.896 275.393 213.902 274.363 213.882C274.262 213.882 274.133 213.711 274.082 213.595C273.744 212.797 273.42 211.998 273.11 211.186C273.01 210.927 272.866 210.783 272.563 210.715C271.066 210.36 269.662 209.787 268.322 209.063C268.164 208.982 267.905 208.968 267.732 209.036C266.868 209.377 266.011 209.746 265.154 210.114C264.938 210.21 264.802 210.196 264.629 210.033C263.542 208.988 262.447 207.944 261.338 206.914C261.151 206.743 261.122 206.606 261.237 206.374C261.626 205.583 262.008 204.784 262.354 203.972C262.426 203.801 262.418 203.535 262.325 203.378C261.569 202.109 260.957 200.778 260.582 199.358C260.518 199.099 260.381 198.962 260.114 198.874C259.25 198.573 258.386 198.259 257.529 197.925C257.407 197.877 257.241 197.72 257.234 197.611C257.213 196.007 257.22 194.41 257.22 192.793C258.206 192.431 259.171 192.09 260.122 191.714C260.302 191.646 260.496 191.448 260.546 191.271C260.957 189.844 261.554 188.5 262.325 187.217C262.411 187.066 262.418 186.821 262.354 186.657C261.994 185.838 261.59 185.033 261.23 184.207C261.173 184.077 261.223 183.825 261.324 183.722C262.404 182.671 263.513 181.641 264.6 180.59C264.787 180.405 264.931 180.392 265.169 180.494C266.004 180.863 266.846 181.224 267.703 181.552C267.883 181.62 268.164 181.613 268.329 181.525C269.669 180.801 271.08 180.255 272.563 179.852C272.758 179.798 272.981 179.607 273.067 179.422C273.42 178.644 273.73 177.853 274.032 177.061C274.133 176.795 274.255 176.692 274.565 176.699C276.084 176.713 277.603 176.713 279.122 176.699C279.432 176.692 279.554 176.815 279.655 177.068C279.965 177.873 280.289 178.679 280.642 179.47C280.714 179.627 280.908 179.798 281.081 179.839C282.578 180.235 284.004 180.787 285.365 181.518C285.53 181.606 285.811 181.613 285.991 181.545C286.927 181.204 287.87 180.794 288.842 180.385Z" fill="white"/>
<path d="M278.957 211.206C280.325 211.555 281.65 211.944 282.996 212.223C284.033 212.435 285.099 212.517 286.157 212.633C286.416 212.66 286.524 212.749 286.625 212.967C287.28 214.407 288.461 215.185 290.095 215.192C291.737 215.199 292.911 214.407 293.573 212.981C293.681 212.742 293.811 212.66 294.077 212.64C296.244 212.449 298.397 212.169 300.442 211.404C300.687 211.316 300.924 211.206 301.198 211.097C301.198 213.193 301.234 215.254 301.176 217.308C301.155 217.997 300.406 218.557 299.671 218.625C299.499 218.639 299.326 218.639 299.153 218.639C293.127 218.639 287.1 218.639 281.074 218.639C279.627 218.639 278.957 217.997 278.95 216.626C278.957 214.79 278.957 212.967 278.957 211.206Z" fill="white"/>
<path d="M298.001 202.389C299.232 202.389 300.42 202.368 301.601 202.402C302.011 202.416 302.321 202.784 302.321 203.208C302.335 204.661 302.35 206.115 302.306 207.569C302.285 208.292 301.867 208.886 301.248 209.275C300.629 209.664 299.966 210.026 299.275 210.271C297.547 210.879 295.718 211.056 293.854 211.213C293.645 210.08 293.076 209.179 292.039 208.579C291.348 208.176 290.592 208.04 289.793 208.081C288.122 208.176 287.006 209.166 286.33 211.213C284.04 210.981 281.722 210.811 279.634 209.725C278.438 209.111 277.776 208.21 277.862 206.838C277.942 205.685 277.877 204.525 277.877 203.365C277.877 202.668 278.201 202.361 278.935 202.361C280.008 202.354 281.088 202.361 282.211 202.361C282.211 203.269 282.211 204.129 282.211 204.989C282.218 206.647 283.298 207.692 285.048 207.698C288.418 207.705 291.78 207.705 295.15 207.698C296.892 207.692 297.986 206.634 297.994 204.989C298.001 204.136 298.001 203.276 298.001 202.389Z" fill="white"/>
<path d="M275.062 195.953C275.522 195.502 275.962 195.065 276.415 194.635C277.862 193.257 279.302 191.878 280.771 190.513C281.578 189.769 282.758 189.735 283.586 190.39C284.378 191.018 284.566 192.144 283.997 192.97C283.853 193.182 283.666 193.359 283.478 193.537C281.254 195.646 279.029 197.754 276.804 199.863C275.666 200.942 274.507 200.969 273.312 199.904C272.527 199.201 271.778 198.464 271.015 197.741C270.662 197.406 270.295 197.079 269.957 196.731C269.136 195.898 269.143 194.697 269.964 193.932C270.778 193.168 272.066 193.168 272.923 193.946C273.535 194.499 274.118 195.079 274.723 195.639C274.81 195.741 274.91 195.83 275.062 195.953Z" fill="white"/>
<path d="M283.723 202.395C288.007 202.395 292.226 202.395 296.481 202.395C296.481 203.392 296.51 204.368 296.467 205.344C296.445 205.856 296.013 206.19 295.473 206.258C295.301 206.279 295.128 206.279 294.955 206.279C291.729 206.279 288.504 206.279 285.278 206.279C284.083 206.279 283.716 205.931 283.716 204.791C283.723 204.006 283.723 203.221 283.723 202.395Z" fill="white"/>
<path d="M294.833 200.914C294.314 200.914 293.789 200.914 293.206 200.914C293.321 200.286 292.882 200.334 292.428 200.341C290.83 200.355 289.238 200.362 287.64 200.341C287.201 200.334 286.927 200.409 287.014 200.921C286.445 200.921 285.912 200.921 285.379 200.921C285.17 199.768 285.991 198.764 287.186 198.751C289.123 198.73 291.067 198.73 293.004 198.751C294.206 198.758 295.034 199.74 294.833 200.914Z" fill="white"/>
<path d="M290.11 209.514C291.348 209.514 292.349 210.449 292.363 211.623C292.378 212.797 291.341 213.786 290.102 213.78C288.857 213.773 287.849 212.804 287.856 211.616C287.863 210.435 288.857 209.507 290.11 209.514Z" fill="white"/>
<path d="M133.02 219.021C129.572 219.021 126.13 219.021 122.681 219.021C119.708 219.021 117.706 217.117 117.706 214.305C117.706 209.398 117.706 204.491 117.699 199.583C117.699 199.297 117.756 199.099 118.023 198.915C122.904 195.57 127.786 192.219 132.653 188.855C132.956 188.65 133.136 188.67 133.416 188.861C138.284 192.226 143.165 195.577 148.047 198.921C148.277 199.078 148.356 199.242 148.356 199.508C148.349 204.491 148.356 209.473 148.349 214.448C148.342 217.083 146.29 219.007 143.496 219.014C140.012 219.028 136.52 219.021 133.02 219.021ZM141.308 208.476C141.308 206.538 141.308 204.593 141.308 202.655C141.308 202.136 141.113 201.952 140.58 201.945C139.889 201.938 139.205 201.938 138.514 201.945C137.996 201.952 137.808 202.129 137.808 202.621C137.808 206.545 137.808 210.469 137.808 214.394C137.808 214.906 137.996 215.076 138.55 215.083C139.191 215.09 139.832 215.09 140.472 215.083C141.128 215.083 141.3 214.912 141.308 214.291C141.308 212.36 141.308 210.415 141.308 208.476ZM139.169 196.499C138.845 196.758 138.6 196.956 138.356 197.154C134.158 200.457 129.586 203.201 124.64 205.398C124.064 205.658 123.876 206.026 124.092 206.443C124.308 206.845 124.704 206.927 125.259 206.681C130.169 204.497 134.741 201.808 138.932 198.539C139.349 198.212 139.767 197.891 140.235 197.515C140.206 197.761 140.177 197.918 140.163 198.082C140.12 198.587 140.35 198.908 140.789 198.969C141.214 199.031 141.574 198.744 141.646 198.266C141.783 197.447 141.912 196.628 142.02 195.802C142.092 195.27 141.747 194.908 141.178 194.929C140.271 194.963 139.364 195.018 138.456 195.079C138.017 195.106 137.715 195.427 137.729 195.802C137.744 196.178 138.068 196.471 138.507 196.485C138.708 196.505 138.888 196.499 139.169 196.499ZM131.271 210.08C131.271 211.5 131.271 212.926 131.271 214.346C131.271 214.912 131.465 215.09 132.063 215.09C132.718 215.097 133.38 215.097 134.036 215.09C134.597 215.083 134.799 214.899 134.799 214.36C134.806 211.5 134.806 208.647 134.799 205.787C134.799 205.276 134.604 205.098 134.057 205.091C133.416 205.084 132.776 205.084 132.135 205.091C131.444 205.091 131.278 205.248 131.278 205.91C131.271 207.296 131.271 208.688 131.271 210.08ZM128.261 211.848C128.261 210.974 128.268 210.101 128.261 209.227C128.254 208.749 128.088 208.586 127.577 208.579C126.872 208.572 126.166 208.572 125.468 208.579C124.942 208.586 124.762 208.756 124.762 209.248C124.755 210.968 124.755 212.681 124.762 214.401C124.762 214.885 124.956 215.069 125.475 215.076C126.166 215.083 126.85 215.083 127.541 215.076C128.081 215.069 128.261 214.892 128.268 214.373C128.268 213.541 128.261 212.694 128.261 211.848Z" fill="white"/>
<path d="M110.448 196.471C110.499 195.12 111.01 194.267 111.946 193.625C114.761 191.701 117.569 189.762 120.384 187.831C123.883 185.428 127.375 183.026 130.867 180.624C132.307 179.634 133.711 179.614 135.151 180.603C141.451 184.93 147.737 189.257 154.037 193.577C155.131 194.328 155.707 195.304 155.556 196.58C155.412 197.795 154.707 198.669 153.497 199.133C152.323 199.577 151.229 199.379 150.221 198.683C147.73 196.963 145.231 195.25 142.74 193.537C139.623 191.393 136.505 189.257 133.402 187.101C133.099 186.889 132.919 186.923 132.639 187.114C127.044 190.97 121.45 194.82 115.848 198.662C114.048 199.897 111.737 199.427 110.823 197.625C110.607 197.195 110.52 196.703 110.448 196.471Z" fill="white"/>
<path d="M117.706 187.913C117.706 187.38 117.706 186.944 117.706 186.5C117.706 185.435 117.699 184.371 117.706 183.306C117.713 182.644 118.152 182.2 118.836 182.193C119.981 182.18 121.119 182.18 122.263 182.193C122.911 182.2 123.307 182.623 123.372 183.231C123.43 183.756 123.286 184.111 122.782 184.439C121.097 185.544 119.463 186.705 117.706 187.913Z" fill="white"/>
<defs>
<linearGradient id="paint0_linear_130_2" x1="430.753" y1="210.114" x2="430.753" y2="350.295" gradientUnits="userSpaceOnUse">
<stop stop-color="#003A47"/>
<stop offset="1" stop-color="white"/>
</linearGradient>
<linearGradient id="paint1_linear_130_2" x1="430.753" y1="148.124" x2="430.753" y2="241.782" gradientUnits="userSpaceOnUse">
<stop stop-color="#CCA500"/>
<stop offset="1" stop-color="#CCA500"/>
</linearGradient>
<linearGradient id="paint2_linear_130_2" x1="430.753" y1="148.124" x2="430.753" y2="164.313" gradientUnits="userSpaceOnUse">
<stop stop-color="#CCA500"/>
<stop offset="1"/>
</linearGradient>
<linearGradient id="paint3_linear_130_2" x1="430.753" y1="164.313" x2="430.753" y2="165.662" gradientUnits="userSpaceOnUse">
<stop stop-color="white"/>
<stop offset="1"/>
</linearGradient>
<linearGradient id="paint4_linear_130_2" x1="132.82" y1="210.114" x2="132.82" y2="350.295" gradientUnits="userSpaceOnUse">
<stop stop-color="#003A47"/>
<stop offset="1" stop-color="white"/>
</linearGradient>
<linearGradient id="paint5_linear_130_2" x1="132.82" y1="148.124" x2="132.82" y2="241.782" gradientUnits="userSpaceOnUse">
<stop stop-color="white"/>
<stop offset="1"/>
</linearGradient>
<linearGradient id="paint6_linear_130_2" x1="132.82" y1="148.124" x2="132.82" y2="164.313" gradientUnits="userSpaceOnUse">
<stop stop-color="white"/>
<stop offset="1"/>
</linearGradient>
<linearGradient id="paint7_linear_130_2" x1="132.82" y1="164.313" x2="132.82" y2="165.662" gradientUnits="userSpaceOnUse">
<stop stop-color="white"/>
<stop offset="1"/>
</linearGradient>
<linearGradient id="paint8_linear_130_2" x1="282.027" y1="210.114" x2="282.027" y2="350.295" gradientUnits="userSpaceOnUse">
<stop stop-color="#003A47"/>
<stop offset="1" stop-color="white"/>
</linearGradient>
<linearGradient id="paint9_linear_130_2" x1="282.027" y1="148.124" x2="282.027" y2="241.782" gradientUnits="userSpaceOnUse">
<stop stop-color="white"/>
<stop offset="1"/>
</linearGradient>
<linearGradient id="paint10_linear_130_2" x1="282.026" y1="148.124" x2="282.026" y2="164.313" gradientUnits="userSpaceOnUse">
<stop stop-color="white"/>
<stop offset="1"/>
</linearGradient>
<linearGradient id="paint11_linear_130_2" x1="282.026" y1="164.313" x2="282.026" y2="165.662" gradientUnits="userSpaceOnUse">
<stop stop-color="white"/>
<stop offset="1"/>
</linearGradient>
</defs>
</svg>
